<svg width="40" height="44" viewBox="0 0 40 44" fill="none" xmlns="http://www.w3.org/2000/svg">
<path d="M29.1234 34.1833C28.9323 34.1833 28.7651 34.2549 28.6218 34.3983C28.4784 34.5416 28.4068 34.7327 28.4068 34.9716C28.4068 35.2105 28.4784 35.4255 28.6218 35.6166C28.7651 35.8077 28.9562 35.9033 29.1951 35.9033C29.434 35.9033 29.6251 35.8077 29.7684 35.6166C29.9118 35.4255 29.9834 35.2105 29.9834 34.9716C29.9834 34.7327 29.9118 34.5416 29.7684 34.3983C29.6251 34.2549 29.4101 34.1833 29.1234 34.1833ZM31.2734 31.4599L27.2601 30.1699L25.8268 27.3033C27.1645 25.8699 27.9768 24.2455 28.2634 22.4299L28.5501 21.2833H29.9834C30.7479 21.2833 31.369 21.0444 31.8468 20.5666C32.3245 20.0888 32.5634 19.5155 32.5634 18.8466V13.5433C32.5634 11.2499 31.9901 9.14771 30.8434 7.2366C29.6968 5.32549 28.1679 3.7966 26.2568 2.64993C24.3457 1.50327 22.2434 0.929932 19.9501 0.929932C17.6568 0.929932 15.5545 1.50327 13.6434 2.64993C11.7323 3.7966 10.2034 5.32549 9.05676 7.2366C7.9101 9.14771 7.33676 11.2499 7.33676 13.5433V18.8466C7.33676 19.3244 7.50399 19.8022 7.83843 20.2799C8.17288 20.7577 8.57899 21.0444 9.05676 21.1399V22.1433C9.05676 22.9077 9.29565 23.5288 9.77343 24.0066C10.2512 24.4844 10.8245 24.7233 11.4934 24.7233H12.3534C12.6401 25.4877 13.0701 26.2044 13.6434 26.8733L14.0734 27.3033L12.6401 30.1699L8.62676 31.4599C6.33343 32.2244 4.42232 33.7055 2.89343 35.9033C1.36454 38.101 0.600098 40.4899 0.600098 43.0699C0.600098 43.3566 0.695653 43.5716 0.886764 43.7149C1.07788 43.8583 1.26899 43.9299 1.4601 43.9299H38.4401C38.6312 43.9299 38.8223 43.8583 39.0134 43.7149C39.2045 43.5716 39.3001 43.3566 39.3001 43.0699C39.3001 40.4899 38.5357 38.101 37.0068 35.9033C35.4779 33.7055 33.5668 32.2244 31.2734 31.4599ZM30.8434 18.8466C30.8434 19.0377 30.7718 19.2288 30.6284 19.4199C30.4851 19.611 30.2701 19.7066 29.9834 19.7066H28.6934C28.9801 17.9866 29.1234 16.2666 29.1234 14.5466V14.4033H30.8434V18.8466ZM9.91676 19.7066C9.6301 19.7066 9.4151 19.611 9.27176 19.4199C9.12843 19.2288 9.05676 19.0377 9.05676 18.8466V14.4033H10.7768V14.6899C10.7768 16.3144 10.9201 17.9866 11.2068 19.7066H9.91676ZM11.4934 23.0033C11.3023 23.0033 11.1351 22.9316 10.9918 22.7883C10.8484 22.6449 10.7768 22.4299 10.7768 22.1433V21.2833H11.3501L11.6368 23.0033H11.4934ZM10.7768 12.6833H9.05676C9.24788 10.8677 9.82121 9.1716 10.7768 7.59493C11.7323 6.01826 13.0223 4.79993 14.6468 3.93993C16.2712 3.07993 18.039 2.64993 19.9501 2.64993C21.8612 2.64993 23.6051 3.07993 25.1818 3.93993C26.7584 4.79993 28.0484 6.01826 29.0518 7.59493C30.0551 9.1716 30.6523 10.8677 30.8434 12.6833H29.1234C29.1234 11.1544 28.7412 9.74493 27.9768 8.45493C27.2123 7.16493 26.1851 6.13771 24.8951 5.37326C23.6051 4.60882 22.1957 4.2266 20.6668 4.2266H19.2334C17.7045 4.2266 16.2951 4.60882 15.0051 5.37326C13.7151 6.13771 12.6879 7.16493 11.9234 8.45493C11.159 9.74493 10.7768 11.1544 10.7768 12.6833ZM19.2334 5.9466H20.6668C22.5779 5.9466 24.2023 6.61549 25.5401 7.95327C26.8779 9.29104 27.5468 10.9155 27.5468 12.8266V13.5433L26.4001 13.3999C23.4379 12.9222 20.9057 11.6322 18.8034 9.52993C18.7079 9.43438 18.5168 9.3866 18.2301 9.3866C17.0834 9.3866 16.0084 9.62549 15.0051 10.1033C14.0018 10.581 13.1657 11.2499 12.4968 12.1099C12.5923 10.3899 13.2851 8.93271 14.5751 7.73827C15.8651 6.54382 17.4179 5.9466 19.2334 5.9466ZM13.5001 23.0033C13.2134 22.3344 12.9745 21.1399 12.7834 19.4199C12.5923 17.6999 12.4968 16.171 12.4968 14.8333L13.5001 13.3999C14.0734 12.6355 14.7423 12.0622 15.5068 11.6799C16.2712 11.2977 17.0834 11.0588 17.9434 10.9633C20.2368 13.2566 23.0079 14.5944 26.2568 14.9766L27.4034 15.2633C27.3079 16.9833 27.1645 18.6555 26.9734 20.2799L26.6868 22.1433C26.4001 23.481 25.8029 24.6994 24.8951 25.7983C23.9873 26.8972 22.9362 27.5899 21.7418 27.8766C20.5473 28.1633 19.3768 28.1633 18.2301 27.8766C16.5101 27.3988 15.1723 26.3477 14.2168 24.7233H15.9368C16.1279 25.201 16.4384 25.6072 16.8684 25.9416C17.2984 26.276 17.7523 26.4433 18.2301 26.4433H19.9501C20.619 26.4433 21.2162 26.1805 21.7418 25.6549C22.2673 25.1294 22.5301 24.5322 22.5301 23.8633C22.5301 23.1944 22.2673 22.5972 21.7418 22.0716C21.2162 21.546 20.619 21.2833 19.9501 21.2833H18.2301C17.7523 21.2833 17.2984 21.4505 16.8684 21.7849C16.4384 22.1194 16.1279 22.5255 15.9368 23.0033H13.5001ZM18.2301 29.5966C18.8034 29.6922 19.3529 29.7399 19.8784 29.7399C20.404 29.7399 20.9057 29.6922 21.3834 29.5966L19.8068 31.1733L18.2301 29.5966ZM18.6601 32.4633L16.0801 35.1866C15.3157 33.8488 14.6468 32.4155 14.0734 30.8866L15.0768 28.8799L18.6601 32.4633ZM24.6801 28.5933L25.8268 30.8866C25.2534 32.4155 24.5845 33.8488 23.8201 35.1866L21.0968 32.4633L24.6801 28.5933ZM17.3701 23.8633C17.3701 23.6722 17.4657 23.481 17.6568 23.2899C17.8479 23.0988 18.039 23.0033 18.2301 23.0033H19.9501C20.1412 23.0033 20.3323 23.0988 20.5234 23.2899C20.7145 23.481 20.8101 23.6722 20.8101 23.8633C20.8101 24.0544 20.7145 24.2455 20.5234 24.4366C20.3323 24.6277 20.1412 24.7233 19.9501 24.7233H18.2301C18.039 24.7233 17.8479 24.6277 17.6568 24.4366C17.4657 24.2455 17.3701 24.0544 17.3701 23.8633ZM2.3201 42.2099C2.51121 40.1077 3.22788 38.2205 4.4701 36.5483C5.71232 34.876 7.28899 33.7055 9.2001 33.0366L12.6401 31.8899C13.309 33.7055 14.1212 35.4255 15.0768 37.0499C15.7457 38.2922 16.5101 39.4866 17.3701 40.6333L18.3734 42.2099H2.3201ZM19.9501 41.4933L18.8034 39.6299C18.1345 38.6744 17.5134 37.7188 16.9401 36.7633L19.8068 33.6099L22.9601 36.7633C22.3868 37.7188 21.7657 38.6744 21.0968 39.6299L19.9501 41.4933ZM21.5268 42.2099L22.5301 40.6333C23.3901 39.4866 24.1545 38.2922 24.8234 37.0499C25.779 35.4255 26.5912 33.7055 27.2601 31.8899L30.7001 33.0366C32.6112 33.7055 34.1879 34.876 35.4301 36.5483C36.6723 38.2205 37.389 40.1077 37.5801 42.2099H21.5268ZM35.0001 38.9133C34.4268 37.7666 33.6623 36.7633 32.7068 35.9033C32.5157 35.8077 32.3007 35.7838 32.0618 35.8316C31.8229 35.8794 31.6318 35.9749 31.4884 36.1183C31.3451 36.2616 31.2973 36.4527 31.3451 36.6916C31.3929 36.9305 31.4645 37.1455 31.5601 37.3366C32.4201 37.9099 33.089 38.6744 33.5668 39.6299C33.6623 39.821 33.8057 39.9644 33.9968 40.0599C34.1879 40.1555 34.4029 40.1316 34.6418 39.9883C34.8807 39.8449 35.024 39.6777 35.0718 39.4866C35.1195 39.2955 35.0957 39.1044 35.0001 38.9133Z" fill="#2494E4"/>
</svg>
