<svg width="40" height="45" viewBox="0 0 40 45" fill="none" xmlns="http://www.w3.org/2000/svg">
<path d="M17.2983 9.67285L8.9827 21.3645L0.0817955 21.814L13.3025 2.1188L36.9755 0.610678L23.8295 20.4358L10.785 21.1928L18.4152 10.4135L17.2983 9.67285ZM11.1045 30.1684C11.3534 30.6014 11.4134 31.0566 11.2845 31.5339C11.1555 32.0112 10.8746 32.3743 10.4416 32.6232C10.0085 32.8721 9.575 32.9196 9.14098 32.7658C8.70696 32.612 8.36552 32.3186 8.11665 31.8856C7.86779 31.4525 7.78616 31.0098 7.87177 30.5574C7.95738 30.1049 8.2167 29.7543 8.64972 29.5054C9.08275 29.2565 9.53792 29.1966 10.0152 29.3255C10.4926 29.4544 10.8557 29.7354 11.1045 30.1684ZM8.62732 27.9629C8.14453 28.1252 7.7548 28.3492 7.45816 28.6349L5.81565 25.7769L8.9827 21.3645L10.785 21.1928L7.43277 25.8844L8.62732 27.9629ZM9.46052 34.2239C10.0429 34.2348 10.5939 34.091 11.1135 33.7924C11.6331 33.4937 12.0348 33.0901 12.3185 32.5814L18.7885 41.1329L13.7221 44.0446L9.46052 34.2239ZM11.4763 22.6965L24.6508 21.8648L33.3531 8.7411L39.0272 18.6141L38.842 18.8933C36.3016 23.6944 33.0395 27.2397 29.0557 29.5293C25.0718 31.8189 20.3663 32.8526 14.939 32.6307L14.6046 32.6501L9.97567 24.5958L11.4763 22.6965Z" fill="#9B51E0"/>
</svg>
