<svg width="41" height="34" viewBox="0 0 41 34" fill="none" xmlns="http://www.w3.org/2000/svg">
<path d="M33.4334 0.16349H0.100098V33.4968H40.1001V0.16349H33.4334ZM5.43343 32.1635H1.43343V28.1635H5.43343V32.1635ZM5.43343 26.8302H1.43343V22.8302H5.43343V26.8302ZM5.43343 21.4968H1.43343V17.4968H5.43343V21.4968ZM5.43343 16.1635H1.43343V12.1635H5.43343V16.1635ZM5.43343 10.8302H1.43343V6.83016H5.43343V10.8302ZM5.43343 5.49682H1.43343V1.49683H5.43343V5.49682ZM33.4334 32.1635H6.76676V1.49683H33.4334V32.1635ZM38.7668 32.1635H34.7668V28.1635H38.7668V32.1635ZM38.7668 26.8302H34.7668V22.8302H38.7668V26.8302ZM38.7668 21.4968H34.7668V17.4968H38.7668V21.4968ZM38.7668 16.1635H34.7668V12.1635H38.7668V16.1635ZM38.7668 10.8302H34.7668V6.83016H38.7668V10.8302ZM38.7668 5.49682H34.7668V1.49683H38.7668V5.49682ZM25.3001 16.5635C25.3001 16.3857 25.2557 16.2968 25.1668 16.2968L15.8334 10.9635C15.6557 10.8746 15.4779 10.8524 15.3001 10.8968C15.1223 10.9413 14.989 11.0302 14.9001 11.1635C14.8112 11.2968 14.7668 11.4079 14.7668 11.4968V22.1635C14.7668 22.4302 14.8779 22.6302 15.1001 22.7635C15.3223 22.8968 15.5668 22.8746 15.8334 22.6968L25.1668 17.3635C25.2557 17.2746 25.3223 17.1413 25.3668 16.9635C25.4112 16.7857 25.389 16.6524 25.3001 16.5635ZM16.1001 20.9635V12.6968L23.4334 16.8302L16.1001 20.9635Z" fill="#FF2E2E"/>
</svg>
