<svg width="31" height="41" viewBox="0 0 31 41" fill="none" xmlns="http://www.w3.org/2000/svg">
<path d="M24.6334 17.0967H5.83343C5.65565 17.0967 5.52232 17.1634 5.43343 17.2967C5.34454 17.4301 5.3001 17.5856 5.3001 17.7634C5.3001 17.9412 5.34454 18.0745 5.43343 18.1634C5.52232 18.2523 5.65565 18.2967 5.83343 18.2967H24.6334C24.8112 18.2967 24.9668 18.2523 25.1001 18.1634C25.2334 18.0745 25.3001 17.9412 25.3001 17.7634C25.3001 17.5856 25.2334 17.4301 25.1001 17.2967C24.9668 17.1634 24.8112 17.0967 24.6334 17.0967ZM24.6334 12.0301H5.83343C5.65565 12.0301 5.52232 12.0967 5.43343 12.2301C5.34454 12.3634 5.3001 12.519 5.3001 12.6967C5.3001 12.8745 5.34454 13.0301 5.43343 13.1634C5.52232 13.2967 5.65565 13.3634 5.83343 13.3634H24.6334C24.8112 13.3634 24.9668 13.2967 25.1001 13.1634C25.2334 13.0301 25.3001 12.8745 25.3001 12.6967C25.3001 12.519 25.2334 12.3634 25.1001 12.2301C24.9668 12.0967 24.8112 12.0301 24.6334 12.0301ZM24.6334 22.0301H5.83343C5.65565 22.0301 5.52232 22.0967 5.43343 22.2301C5.34454 22.3634 5.3001 22.519 5.3001 22.6967C5.3001 22.8745 5.34454 23.0301 5.43343 23.1634C5.52232 23.2967 5.65565 23.3634 5.83343 23.3634H24.6334C24.8112 23.3634 24.9668 23.2967 25.1001 23.1634C25.2334 23.0301 25.3001 22.8745 25.3001 22.6967C25.3001 22.519 25.2334 22.3634 25.1001 22.2301C24.9668 22.0967 24.8112 22.0301 24.6334 22.0301ZM24.6334 27.0967H5.83343C5.65565 27.0967 5.52232 27.1634 5.43343 27.2967C5.34454 27.4301 5.3001 27.5856 5.3001 27.7634C5.3001 27.9412 5.34454 28.0745 5.43343 28.1634C5.52232 28.2523 5.65565 28.2967 5.83343 28.2967H24.6334C24.8112 28.2967 24.9668 28.2523 25.1001 28.1634C25.2334 28.0745 25.3001 27.9412 25.3001 27.7634C25.3001 27.5856 25.2334 27.4301 25.1001 27.2967C24.9668 27.1634 24.8112 27.0967 24.6334 27.0967ZM19.5668 32.0301H5.83343C5.65565 32.0301 5.52232 32.0967 5.43343 32.2301C5.34454 32.3634 5.3001 32.519 5.3001 32.6967C5.3001 32.8745 5.34454 33.0301 5.43343 33.1634C5.52232 33.2967 5.65565 33.3634 5.83343 33.3634H19.5668C19.7445 33.3634 19.9001 33.2967 20.0334 33.1634C20.1668 33.0301 20.2334 32.8745 20.2334 32.6967C20.2334 32.519 20.1668 32.3634 20.0334 32.2301C19.9001 32.0967 19.7445 32.0301 19.5668 32.0301ZM30.1001 8.56341C30.0112 8.56341 28.7223 7.31897 26.2334 4.83008L22.3668 0.963409C22.2779 0.874519 21.9223 0.830074 21.3001 0.830074H3.3001C2.41121 0.830074 1.65565 1.14119 1.03343 1.76341C0.411209 2.38563 0.100098 3.14119 0.100098 4.03008V37.7634C0.100098 38.5634 0.411209 39.2745 1.03343 39.8967C1.65565 40.519 2.41121 40.8301 3.3001 40.8301H27.0334C27.9223 40.8301 28.6557 40.519 29.2334 39.8967C29.8112 39.2745 30.1001 38.5634 30.1001 37.7634V10.0301C30.1001 9.14119 30.1001 8.69674 30.1001 8.69674V8.56341ZM27.9668 8.29674H22.6334V2.96341L27.9668 8.29674ZM27.0334 39.6301H3.3001C2.76676 39.6301 2.32232 39.4301 1.96676 39.0301C1.61121 38.6301 1.43343 38.2079 1.43343 37.7634V4.03008C1.43343 3.49674 1.61121 3.03008 1.96676 2.63008C2.32232 2.23008 2.76676 2.03008 3.3001 2.03008H21.4334V8.96341C21.4334 9.14119 21.5001 9.29674 21.6334 9.43008C21.7668 9.56341 21.9223 9.63008 22.1001 9.63008H28.9001V37.7634C28.9001 38.2079 28.7223 38.6301 28.3668 39.0301C28.0112 39.4301 27.5668 39.6301 27.0334 39.6301Z" fill="#219653"/>
</svg>
