<svg width="14" height="14" viewBox="0 0 14 14" fill="none" xmlns="http://www.w3.org/2000/svg">
<path d="M11.0303 1.26596H10.1769V0.73263C10.1769 0.625963 10.1325 0.519297 10.0436 0.41263C9.9547 0.305964 9.83914 0.25263 9.69692 0.25263C9.5547 0.25263 9.43914 0.305964 9.35025 0.41263C9.26136 0.519297 9.21692 0.625963 9.21692 0.73263V1.26596H4.84359V0.73263C4.84359 0.625963 4.79914 0.519297 4.71025 0.41263C4.62137 0.305964 4.50581 0.25263 4.36359 0.25263C4.22137 0.25263 4.10581 0.305964 4.01692 0.41263C3.92803 0.519297 3.88359 0.625963 3.88359 0.73263V1.26596H3.03025C2.6747 1.23041 2.33692 1.26596 2.01692 1.37263C1.69692 1.4793 1.41248 1.65707 1.16359 1.90596C0.914698 2.15485 0.736921 2.4393 0.630254 2.7593C0.523587 3.0793 0.488032 3.41707 0.523587 3.77263V10.7593C0.488032 11.1149 0.523587 11.4526 0.630254 11.7726C0.736921 12.0926 0.914698 12.3771 1.16359 12.626C1.41248 12.8749 1.69692 13.0526 2.01692 13.1593C2.33692 13.266 2.6747 13.3015 3.03025 13.266H11.0303C11.3858 13.3015 11.7236 13.266 12.0436 13.1593C12.3636 13.0526 12.648 12.8749 12.8969 12.626C13.1458 12.3771 13.3236 12.0926 13.4303 11.7726C13.5369 11.4526 13.5725 11.1149 13.5369 10.7593V3.77263C13.5725 3.41707 13.5369 3.0793 13.4303 2.7593C13.3236 2.4393 13.1458 2.15485 12.8969 1.90596C12.648 1.65707 12.3636 1.4793 12.0436 1.37263C11.7236 1.26596 11.3858 1.23041 11.0303 1.26596ZM3.03025 2.2793H3.88359V2.7593C3.88359 2.90152 3.92803 3.01707 4.01692 3.10596C4.10581 3.19485 4.22137 3.2393 4.36359 3.2393C4.50581 3.2393 4.62137 3.19485 4.71025 3.10596C4.79914 3.01707 4.84359 2.90152 4.84359 2.7593V2.2793H9.21692V2.7593C9.21692 2.90152 9.26136 3.01707 9.35025 3.10596C9.43914 3.19485 9.5547 3.2393 9.69692 3.2393C9.83914 3.2393 9.9547 3.19485 10.0436 3.10596C10.1325 3.01707 10.1769 2.90152 10.1769 2.7593V2.2793H11.0303C11.5636 2.2793 11.9458 2.39485 12.1769 2.62596C12.408 2.85707 12.5236 3.2393 12.5236 3.77263V4.25263H1.53692V3.77263C1.53692 3.2393 1.65248 2.85707 1.88359 2.62596C2.1147 2.39485 2.49692 2.2793 3.03025 2.2793ZM11.0303 12.2526H3.03025C2.49692 12.2526 2.1147 12.1371 1.88359 11.906C1.65248 11.6749 1.53692 11.2926 1.53692 10.7593V5.26596H12.5236V10.7593C12.5236 11.2926 12.408 11.6749 12.1769 11.906C11.9458 12.1371 11.5636 12.2526 11.0303 12.2526ZM5.05692 7.3993C5.05692 7.61263 4.98581 7.78152 4.84359 7.90596C4.70136 8.03041 4.54137 8.09263 4.36359 8.09263C4.18581 8.09263 4.0347 8.03041 3.91025 7.90596C3.78581 7.78152 3.72359 7.62152 3.72359 7.42596C3.72359 7.23041 3.78581 7.07041 3.91025 6.94596C4.0347 6.82152 4.18581 6.7593 4.36359 6.7593C4.54137 6.7593 4.70136 6.82152 4.84359 6.94596C4.98581 7.07041 5.05692 7.22152 5.05692 7.3993ZM7.72359 7.3993C7.72359 7.61263 7.65248 7.78152 7.51025 7.90596C7.36803 8.03041 7.20803 8.09263 7.03025 8.09263C6.85248 8.09263 6.70136 8.03041 6.57692 7.90596C6.45248 7.78152 6.39025 7.62152 6.39025 7.42596C6.39025 7.23041 6.45248 7.07041 6.57692 6.94596C6.70136 6.82152 6.85248 6.7593 7.03025 6.7593C7.20803 6.7593 7.36803 6.82152 7.51025 6.94596C7.65248 7.07041 7.72359 7.22152 7.72359 7.3993ZM10.3903 7.3993C10.3903 7.61263 10.3191 7.78152 10.1769 7.90596C10.0347 8.03041 9.8747 8.09263 9.69692 8.09263C9.51914 8.09263 9.36803 8.03041 9.24359 7.90596C9.11914 7.78152 9.05692 7.62152 9.05692 7.42596C9.05692 7.23041 9.11914 7.07041 9.24359 6.94596C9.36803 6.82152 9.51914 6.7593 9.69692 6.7593C9.8747 6.7593 10.0347 6.82152 10.1769 6.94596C10.3191 7.07041 10.3903 7.22152 10.3903 7.3993ZM5.05692 10.066C5.05692 10.2793 4.98581 10.4482 4.84359 10.5726C4.70136 10.6971 4.54137 10.7593 4.36359 10.7593C4.18581 10.7593 4.0347 10.6971 3.91025 10.5726C3.78581 10.4482 3.72359 10.2882 3.72359 10.0926C3.72359 9.89707 3.78581 9.73707 3.91025 9.61263C4.0347 9.48819 4.18581 9.42596 4.36359 9.42596C4.54137 9.42596 4.70136 9.48819 4.84359 9.61263C4.98581 9.73707 5.05692 9.88819 5.05692 10.066ZM7.72359 10.066C7.72359 10.2793 7.65248 10.4482 7.51025 10.5726C7.36803 10.6971 7.20803 10.7593 7.03025 10.7593C6.85248 10.7593 6.70136 10.6971 6.57692 10.5726C6.45248 10.4482 6.39025 10.2882 6.39025 10.0926C6.39025 9.89707 6.45248 9.73707 6.57692 9.61263C6.70136 9.48819 6.85248 9.42596 7.03025 9.42596C7.20803 9.42596 7.36803 9.48819 7.51025 9.61263C7.65248 9.73707 7.72359 9.88819 7.72359 10.066ZM10.3903 10.066C10.3903 10.2793 10.3191 10.4482 10.1769 10.5726C10.0347 10.6971 9.8747 10.7593 9.69692 10.7593C9.51914 10.7593 9.36803 10.6971 9.24359 10.5726C9.11914 10.4482 9.05692 10.2882 9.05692 10.0926C9.05692 9.89707 9.11914 9.73707 9.24359 9.61263C9.36803 9.48819 9.51914 9.42596 9.69692 9.42596C9.8747 9.42596 10.0347 9.48819 10.1769 9.61263C10.3191 9.73707 10.3903 9.88819 10.3903 10.066Z" fill="#1363DF"/>
</svg>
