<svg width="25" height="25" viewBox="0 0 25 25" fill="none" xmlns="http://www.w3.org/2000/svg">
<path d="M18.5601 6.56C18.5601 4.9687 17.928 3.44258 16.8027 2.31736C15.6775 1.19214 14.1514 0.559998 12.5601 0.559998C10.9688 0.559998 9.44264 1.19214 8.31742 2.31736C7.1922 3.44258 6.56006 4.9687 6.56006 6.56H0.560059V21.56C0.560059 22.3556 0.876129 23.1187 1.43874 23.6813C2.00135 24.2439 2.76441 24.56 3.56006 24.56H21.5601C22.3557 24.56 23.1188 24.2439 23.6814 23.6813C24.244 23.1187 24.5601 22.3556 24.5601 21.56V6.56H18.5601ZM12.5601 2.56C13.621 2.56 14.6384 2.98143 15.3885 3.73157C16.1387 4.48172 16.5601 5.49913 16.5601 6.56H8.56006C8.56006 5.49913 8.98149 4.48172 9.73163 3.73157C10.4818 2.98143 11.4992 2.56 12.5601 2.56ZM22.5601 21.56C22.5601 21.8252 22.4547 22.0796 22.2672 22.2671C22.0797 22.4546 21.8253 22.56 21.5601 22.56H3.56006C3.29484 22.56 3.04049 22.4546 2.85295 22.2671C2.66542 22.0796 2.56006 21.8252 2.56006 21.56V8.56H6.56006V10.56H8.56006V8.56H16.5601V10.56H18.5601V8.56H22.5601V21.56Z" fill="#5A7093"/>
</svg>
