<svg width="16" height="16" viewBox="0 0 16 16" fill="none" xmlns="http://www.w3.org/2000/svg">
<path d="M7.95 0.819726C6.63444 0.819726 5.42556 1.13973 4.32333 1.77973C3.22111 2.41973 2.35 3.29084 1.71 4.39306C1.07 5.49528 0.75 6.69528 0.75 7.99306C0.75 9.29084 1.07 10.4908 1.71 11.5931C2.35 12.6953 3.22111 13.5753 4.32333 14.2331C5.42556 14.8908 6.63444 15.2197 7.95 15.2197C9.26556 15.2197 10.4744 14.8908 11.5767 14.2331C12.6789 13.5753 13.55 12.6953 14.19 11.5931C14.83 10.4908 15.15 9.29084 15.15 7.99306C15.15 6.69528 14.83 5.49528 14.19 4.39306C13.55 3.29084 12.6789 2.41973 11.5767 1.77973C10.4744 1.13973 9.26556 0.819726 7.95 0.819726ZM7.95 1.77973C9.08778 1.77973 10.1367 2.05528 11.0967 2.60639C12.0567 3.1575 12.8122 3.91306 13.3633 4.87306C13.9144 5.83306 14.19 6.87306 14.19 7.99306C14.19 9.11306 13.9144 10.1531 13.3633 11.1131C12.8122 12.0731 12.0567 12.8375 11.0967 13.4064C10.1367 13.9753 9.08778 14.2597 7.95 14.2597C6.81222 14.2597 5.76333 13.9753 4.80333 13.4064C3.84333 12.8375 3.08778 12.0731 2.53667 11.1131C1.98556 10.1531 1.71 9.11306 1.71 7.99306C1.71 6.87306 1.98556 5.83306 2.53667 4.87306C3.08778 3.91306 3.84333 3.1575 4.80333 2.60639C5.76333 2.05528 6.81222 1.77973 7.95 1.77973ZM6.99 4.65973V8.71306C6.99 8.81973 7.02556 8.9175 7.09667 9.00639C7.16778 9.09528 7.25667 9.1575 7.36333 9.19306L10.0833 9.93973C10.2256 9.97528 10.35 9.9575 10.4567 9.88639C10.5633 9.81528 10.6344 9.7175 10.67 9.59306C10.7056 9.46862 10.6967 9.35306 10.6433 9.24639C10.59 9.13973 10.4922 9.06862 10.35 9.03306L7.95 8.33973V4.65973C7.95 4.5175 7.90556 4.40195 7.81667 4.31306C7.72778 4.22417 7.61222 4.17973 7.47 4.17973C7.32778 4.17973 7.21222 4.22417 7.12333 4.31306C7.03444 4.40195 6.99 4.5175 6.99 4.65973Z" fill="#39557E"/>
</svg>
