<svg width="13" height="17" viewBox="0 0 13 17" fill="none" xmlns="http://www.w3.org/2000/svg">
<path d="M10.4134 6.84651H2.89343C2.82232 6.84651 2.76899 6.87318 2.73343 6.92651C2.69788 6.97984 2.6801 7.04207 2.6801 7.11318C2.6801 7.18429 2.69788 7.23762 2.73343 7.27318C2.76899 7.30873 2.82232 7.32651 2.89343 7.32651H10.4134C10.4845 7.32651 10.5468 7.30873 10.6001 7.27318C10.6534 7.23762 10.6801 7.18429 10.6801 7.11318C10.6801 7.04207 10.6534 6.97984 10.6001 6.92651C10.5468 6.87318 10.4845 6.84651 10.4134 6.84651ZM10.4134 4.81984H2.89343C2.82232 4.81984 2.76899 4.84651 2.73343 4.89984C2.69788 4.95318 2.6801 5.0154 2.6801 5.08651C2.6801 5.15762 2.69788 5.21984 2.73343 5.27318C2.76899 5.32651 2.82232 5.35318 2.89343 5.35318H10.4134C10.4845 5.35318 10.5468 5.32651 10.6001 5.27318C10.6534 5.21984 10.6801 5.15762 10.6801 5.08651C10.6801 5.0154 10.6534 4.95318 10.6001 4.89984C10.5468 4.84651 10.4845 4.81984 10.4134 4.81984ZM10.4134 8.81984H2.89343C2.82232 8.81984 2.76899 8.84651 2.73343 8.89984C2.69788 8.95318 2.6801 9.0154 2.6801 9.08651C2.6801 9.15762 2.69788 9.21984 2.73343 9.27318C2.76899 9.32651 2.82232 9.35318 2.89343 9.35318H10.4134C10.4845 9.35318 10.5468 9.32651 10.6001 9.27318C10.6534 9.21984 10.6801 9.15762 10.6801 9.08651C10.6801 9.0154 10.6534 8.95318 10.6001 8.89984C10.5468 8.84651 10.4845 8.81984 10.4134 8.81984ZM10.4134 10.8465H2.89343C2.82232 10.8465 2.76899 10.8732 2.73343 10.9265C2.69788 10.9798 2.6801 11.0421 2.6801 11.1132C2.6801 11.1843 2.69788 11.2376 2.73343 11.2732C2.76899 11.3087 2.82232 11.3265 2.89343 11.3265H10.4134C10.4845 11.3265 10.5468 11.3087 10.6001 11.2732C10.6534 11.2376 10.6801 11.1843 10.6801 11.1132C10.6801 11.0421 10.6534 10.9798 10.6001 10.9265C10.5468 10.8732 10.4845 10.8465 10.4134 10.8465ZM8.38676 12.8198H2.89343C2.82232 12.8198 2.76899 12.8465 2.73343 12.8998C2.69788 12.9532 2.6801 13.0154 2.6801 13.0865C2.6801 13.1576 2.69788 13.2198 2.73343 13.2732C2.76899 13.3265 2.82232 13.3532 2.89343 13.3532H8.38676C8.45788 13.3532 8.5201 13.3265 8.57343 13.2732C8.62676 13.2198 8.65343 13.1576 8.65343 13.0865C8.65343 13.0154 8.62676 12.9532 8.57343 12.8998C8.5201 12.8465 8.45788 12.8198 8.38676 12.8198ZM12.6001 3.43318C12.5645 3.43318 12.049 2.9354 11.0534 1.93984L9.50676 0.393177C9.47121 0.357621 9.32899 0.339844 9.0801 0.339844H1.8801C1.52454 0.339844 1.22232 0.464288 0.973431 0.713177C0.724542 0.962066 0.600098 1.26429 0.600098 1.61984V15.1132C0.600098 15.4332 0.724542 15.7176 0.973431 15.9665C1.22232 16.2154 1.52454 16.3398 1.8801 16.3398H11.3734C11.729 16.3398 12.0223 16.2154 12.2534 15.9665C12.4845 15.7176 12.6001 15.4332 12.6001 15.1132V4.01984C12.6001 3.66429 12.6001 3.48651 12.6001 3.48651V3.43318ZM11.7468 3.32651H9.61343V1.19318L11.7468 3.32651ZM11.3734 15.8598H1.8801C1.66676 15.8598 1.48899 15.7798 1.34676 15.6198C1.20454 15.4598 1.13343 15.291 1.13343 15.1132V1.61984C1.13343 1.40651 1.20454 1.21984 1.34676 1.05984C1.48899 0.899843 1.66676 0.819843 1.8801 0.819843H9.13343V3.59318C9.13343 3.66429 9.1601 3.72651 9.21343 3.77984C9.26676 3.83318 9.32899 3.85984 9.4001 3.85984H12.1201V15.1132C12.1201 15.291 12.049 15.4598 11.9068 15.6198C11.7645 15.7798 11.5868 15.8598 11.3734 15.8598Z" fill="#39557E"/>
</svg>
