<svg width="36" height="23" viewBox="0 0 36 23" fill="none" xmlns="http://www.w3.org/2000/svg">
<path d="M14.1715 6.04331L24.6292 6.53494L28.8961 1.62717L11.6342 0.347018L0.106389 13.259L17.4092 14.6405L23.7189 7.49232L14.0937 7.01812L14.1715 6.04331ZM28.728 11.7182C28.8645 12.0562 29.0989 12.2956 29.431 12.4366C29.7631 12.5775 30.0981 12.5798 30.436 12.4432C30.7739 12.3067 30.9964 12.0792 31.1036 11.7608C31.2108 11.4423 31.1961 11.1141 31.0596 10.7762C30.923 10.4383 30.7056 10.1921 30.4073 10.0374C30.109 9.88282 29.7909 9.87378 29.453 10.0103C29.1151 10.1468 28.8757 10.3811 28.7347 10.7132C28.5937 11.0453 28.5915 11.3803 28.728 11.7182ZM28.5775 9.30273C28.8881 9.09863 29.1922 8.97576 29.4899 8.93412L28.5888 6.70394L24.6292 6.53494L23.7189 7.49232L27.9222 7.68078L28.5775 9.30273ZM31.7968 12.6009C31.5408 12.9402 31.2101 13.1917 30.8046 13.3556C30.3991 13.5194 29.9864 13.5682 29.5666 13.502L31.5622 21.068L35.5157 19.4707L31.7968 12.6009ZM24.2708 8.56646L17.8597 15.7556L6.40574 14.841L9.51848 22.5453L9.76218 22.5648C13.6628 23.2686 17.1674 22.9925 20.2762 21.7365C23.3849 20.4805 26.0977 18.2446 28.4146 15.0287L28.5764 14.8454L26.0371 8.56034L24.2708 8.56646Z" fill="white"/>
</svg>
