<svg width="31" height="31" viewBox="0 0 31 31" fill="none" xmlns="http://www.w3.org/2000/svg">
<path d="M10.8001 14.6H4.5001C3.43343 14.6 2.51676 14.2167 1.7501 13.45C0.983431 12.6833 0.600098 11.7667 0.600098 10.7V4.4C0.600098 3.33333 0.983431 2.41667 1.7501 1.65C2.51676 0.883333 3.43343 0.5 4.5001 0.5H10.8001C11.8668 0.5 12.7834 0.883333 13.5501 1.65C14.3168 2.41667 14.7001 3.33333 14.7001 4.4V10.7C14.7001 11.7667 14.3168 12.6833 13.5501 13.45C12.7834 14.2167 11.8668 14.6 10.8001 14.6ZM4.5001 2.4C3.9001 2.4 3.41676 2.58333 3.0501 2.95C2.68343 3.31667 2.5001 3.8 2.5001 4.4V10.7C2.5001 11.2333 2.68343 11.7 3.0501 12.1C3.41676 12.5 3.9001 12.7 4.5001 12.7H10.8001C11.3334 12.7 11.8001 12.5 12.2001 12.1C12.6001 11.7 12.8001 11.2333 12.8001 10.7V4.4C12.8001 3.8 12.6001 3.31667 12.2001 2.95C11.8001 2.58333 11.3334 2.4 10.8001 2.4H4.5001ZM26.7001 14.6H20.4001C19.3334 14.6 18.4168 14.2167 17.6501 13.45C16.8834 12.6833 16.5001 11.7667 16.5001 10.7V4.4C16.5001 3.33333 16.8834 2.41667 17.6501 1.65C18.4168 0.883333 19.3334 0.5 20.4001 0.5H26.7001C27.7668 0.5 28.6834 0.883333 29.4501 1.65C30.2168 2.41667 30.6001 3.33333 30.6001 4.4V10.7C30.6001 11.7667 30.2168 12.6833 29.4501 13.45C28.6834 14.2167 27.7668 14.6 26.7001 14.6ZM20.4001 2.4C19.8668 2.4 19.4001 2.58333 19.0001 2.95C18.6001 3.31667 18.4001 3.8 18.4001 4.4V10.7C18.4001 11.2333 18.6001 11.7 19.0001 12.1C19.4001 12.5 19.8668 12.7 20.4001 12.7H26.7001C27.3001 12.7 27.7834 12.5 28.1501 12.1C28.5168 11.7 28.7001 11.2333 28.7001 10.7V4.4C28.7001 3.8 28.5168 3.31667 28.1501 2.95C27.7834 2.58333 27.3001 2.4 26.7001 2.4H20.4001ZM23.6001 30.5C22.3334 30.5 21.1501 30.1833 20.0501 29.55C18.9501 28.9167 18.0834 28.0667 17.4501 27C16.8168 25.9333 16.5001 24.7667 16.5001 23.5C16.5001 22.2333 16.8168 21.05 17.4501 19.95C18.0834 18.85 18.9501 17.9833 20.0501 17.35C21.1501 16.7167 22.3334 16.4 23.6001 16.4C24.8668 16.4 26.0334 16.7167 27.1001 17.35C28.1668 17.9833 29.0168 18.85 29.6501 19.95C30.2834 21.05 30.6001 22.2333 30.6001 23.5C30.6001 24.7667 30.2834 25.9333 29.6501 27C29.0168 28.0667 28.1668 28.9167 27.1001 29.55C26.0334 30.1833 24.8668 30.5 23.6001 30.5ZM23.6001 18.3C22.1334 18.3 20.9001 18.8 19.9001 19.8C18.9001 20.8 18.4001 22.0167 18.4001 23.45C18.4001 24.8833 18.9001 26.1 19.9001 27.1C20.9001 28.1 22.1168 28.6 23.5501 28.6C24.9834 28.6 26.2001 28.1 27.2001 27.1C28.2001 26.1 28.7001 24.8833 28.7001 23.45C28.7001 22.0167 28.2001 20.8 27.2001 19.8C26.2001 18.8 25.0001 18.3 23.6001 18.3ZM10.8001 30.5H4.5001C3.43343 30.5 2.51676 30.1167 1.7501 29.35C0.983431 28.5833 0.600098 27.6667 0.600098 26.6V20.3C0.600098 19.2333 0.983431 18.3167 1.7501 17.55C2.51676 16.7833 3.43343 16.4 4.5001 16.4H10.8001C11.8668 16.4 12.7834 16.7833 13.5501 17.55C14.3168 18.3167 14.7001 19.2333 14.7001 20.3V26.6C14.7001 27.6667 14.3168 28.5833 13.5501 29.35C12.7834 30.1167 11.8668 30.5 10.8001 30.5ZM4.5001 18.3C3.9001 18.3 3.41676 18.5 3.0501 18.9C2.68343 19.3 2.5001 19.7667 2.5001 20.3V26.6C2.5001 27.2 2.68343 27.6833 3.0501 28.05C3.41676 28.4167 3.9001 28.6 4.5001 28.6H10.8001C11.3334 28.6 11.8001 28.4167 12.2001 28.05C12.6001 27.6833 12.8001 27.2 12.8001 26.6V20.3C12.8001 19.7667 12.6001 19.3 12.2001 18.9C11.8001 18.5 11.3334 18.3 10.8001 18.3H4.5001Z" fill="#1363DF"/>
</svg>
