<svg width="17" height="14" viewBox="0 0 17 14" fill="none" xmlns="http://www.w3.org/2000/svg">
<path d="M8.62988 7.23312C9.16322 6.91313 9.58988 6.48646 9.90988 5.95312C10.2299 5.41979 10.3899 4.84201 10.3899 4.21979C10.3899 3.59757 10.2299 3.01979 9.90988 2.48646C9.58988 1.95312 9.16322 1.52646 8.62988 1.20646C8.09655 0.886458 7.51877 0.726458 6.89655 0.726458C6.27433 0.726458 5.69655 0.886458 5.16322 1.20646C4.62988 1.52646 4.20322 1.95312 3.88322 2.48646C3.56322 3.01979 3.40322 3.59757 3.40322 4.21979C3.40322 4.84201 3.56322 5.41979 3.88322 5.95312C4.20322 6.48646 4.62988 6.91313 5.16322 7.23312C3.84766 7.55312 2.76322 8.22868 1.90988 9.25979C1.05655 10.2909 0.629883 11.4465 0.629883 12.7265V13.5798C0.629883 13.6865 0.665438 13.7753 0.736549 13.8465C0.807661 13.9176 0.887661 13.9531 0.976549 13.9531C1.06544 13.9531 1.14544 13.9176 1.21655 13.8465C1.28766 13.7753 1.32322 13.6865 1.32322 13.5798V12.7265C1.32322 11.8376 1.57211 11.002 2.06988 10.2198C2.56766 9.43757 3.24322 8.82424 4.09655 8.37979C4.94988 7.93535 5.88322 7.71312 6.89655 7.71312C7.90988 7.71312 8.84322 7.93535 9.69655 8.37979C10.5499 8.82424 11.2254 9.43757 11.7232 10.2198C12.221 11.002 12.4699 11.8376 12.4699 12.7265V13.5798C12.4699 13.6865 12.5054 13.7753 12.5765 13.8465C12.6477 13.9176 12.7277 13.9531 12.8165 13.9531C12.9054 13.9531 12.9854 13.9176 13.0566 13.8465C13.1277 13.7753 13.1632 13.6865 13.1632 13.5798V12.7265C13.1632 11.4465 12.7365 10.2909 11.8832 9.25979C11.0299 8.22868 9.94544 7.55312 8.62988 7.23312ZM4.09655 4.19312C4.09655 3.44646 4.37211 2.79757 4.92322 2.24646C5.47433 1.69535 6.13211 1.41979 6.89655 1.41979C7.66099 1.41979 8.31877 1.69535 8.86988 2.24646C9.42099 2.79757 9.69655 3.45535 9.69655 4.21979C9.69655 4.98424 9.42099 5.63312 8.86988 6.16646C8.31877 6.69979 7.66099 6.96646 6.89655 6.96646C6.13211 6.96646 5.47433 6.69979 4.92322 6.16646C4.37211 5.63312 4.09655 4.97535 4.09655 4.19312ZM13.2699 7.23312C13.661 6.98424 13.9721 6.65535 14.2032 6.24646C14.4343 5.83757 14.5499 5.38424 14.5499 4.88646C14.5499 4.13979 14.2743 3.4909 13.7232 2.93979C13.1721 2.38868 12.5232 2.11312 11.7765 2.11312C11.6699 2.11312 11.581 2.14868 11.5099 2.21979C11.4388 2.2909 11.4032 2.3709 11.4032 2.45979C11.4032 2.54868 11.4388 2.62868 11.5099 2.69979C11.581 2.7709 11.6699 2.80646 11.7765 2.80646C12.3454 2.80646 12.8343 3.0109 13.2432 3.41979C13.6521 3.82868 13.8566 4.32646 13.8566 4.91313C13.8566 5.49979 13.6521 5.98868 13.2432 6.37979C12.8343 6.7709 12.3454 6.96646 11.7765 6.96646C11.6699 6.96646 11.581 7.00201 11.5099 7.07312C11.4388 7.14424 11.4032 7.23312 11.4032 7.33979C11.4032 7.44646 11.4388 7.53535 11.5099 7.60646C11.581 7.67757 11.6699 7.71312 11.7765 7.71312C12.5232 7.71312 13.2165 7.88201 13.8566 8.21979C14.4965 8.55757 15.0032 9.01979 15.3765 9.60646C15.7499 10.1931 15.9366 10.842 15.9366 11.5531V12.1931C15.9366 12.2998 15.9721 12.3887 16.0432 12.4598C16.1143 12.5309 16.1943 12.5665 16.2832 12.5665C16.3721 12.5665 16.4521 12.5309 16.5232 12.4598C16.5943 12.3887 16.6299 12.2998 16.6299 12.1931V11.5531C16.6299 10.5576 16.3188 9.65979 15.6965 8.85979C15.0743 8.05979 14.2654 7.51757 13.2699 7.23312Z" fill="#39557E"/>
</svg>
