<svg width="37" height="37" viewBox="0 0 37 37" fill="none" xmlns="http://www.w3.org/2000/svg">
<path d="M29.2903 23.3C28.5703 22.5 27.7303 22.1 26.7703 22.1C25.8103 22.1 24.9303 22.5 24.1303 23.3L21.7303 25.7L20.4103 24.98C18.1703 23.54 16.0903 21.62 14.1703 19.22C13.2103 18.1 12.5303 17.02 12.1303 15.98L14.5303 13.7C15.3303 12.9 15.7303 12.02 15.7303 11.06C15.7303 10.1 15.3303 9.21998 14.5303 8.41998L10.3303 4.21998C9.53027 3.41998 8.67026 3.01998 7.75026 3.01998C6.83026 3.01998 5.97026 3.41998 5.17026 4.21998L2.53026 6.85998C1.57026 7.81998 1.01026 8.97998 0.850265 10.34C0.770265 12.02 1.13026 13.9 1.93026 15.98C3.13026 19.26 5.05026 22.5 7.69026 25.7C11.0503 29.7 15.0103 32.78 19.5703 34.94C22.1303 36.14 24.3703 36.82 26.2903 36.98H26.7703C28.5303 36.98 29.9703 36.34 31.0903 35.06H31.2103C31.4503 34.74 31.8503 34.3 32.4103 33.74L33.4903 32.66C34.2903 31.86 34.6903 30.98 34.6903 30.02C34.6903 29.06 34.2903 28.22 33.4903 27.5L29.2903 23.3ZM32.0503 31.34L31.0903 32.18C30.4503 32.82 29.9703 33.34 29.6503 33.74C28.8503 34.54 27.8903 34.94 26.7703 34.94H26.4103C24.7303 34.86 22.7703 34.26 20.5303 33.14C16.2103 31.06 12.4503 28.14 9.25027 24.38C6.77027 21.34 4.97026 18.3 3.85026 15.26C3.13026 13.42 2.85026 11.82 3.01026 10.46C3.09026 9.57998 3.41026 8.85998 3.97026 8.29998L6.61026 5.65998C7.01026 5.25998 7.39026 5.05998 7.75026 5.05998C8.11026 5.05998 8.49027 5.25998 8.89027 5.65998L13.0903 9.85998C13.8103 10.66 13.8103 11.42 13.0903 12.14L12.3703 12.86C11.6503 13.66 11.0103 14.26 10.4503 14.66V14.78C9.97027 15.26 9.85027 15.82 10.0903 16.46V16.58C10.5703 17.78 11.3703 19.1 12.4903 20.54C14.5703 23.1 16.8503 25.14 19.3303 26.66L21.0103 27.62C21.3303 27.78 21.6503 27.86 21.9703 27.86C22.2903 27.86 22.6103 27.66 22.9303 27.26L25.5703 24.74C25.9703 24.34 26.3503 24.14 26.7103 24.14C27.0703 24.14 27.4503 24.34 27.8503 24.74L32.0503 28.94C32.7703 29.66 32.7703 30.46 32.0503 31.34ZM20.2903 9.49998C22.2903 9.89998 24.0303 10.82 25.5103 12.26C26.9903 13.7 27.8903 15.46 28.2103 17.54C28.2903 17.78 28.4303 17.98 28.6303 18.14C28.8303 18.3 29.0503 18.38 29.2903 18.38H29.4103C29.7303 18.3 29.9703 18.14 30.1303 17.9C30.2903 17.66 30.3303 17.42 30.2503 17.18C29.8503 14.7 28.7703 12.58 27.0103 10.82C25.2503 9.05998 23.1303 7.97998 20.6503 7.57998C20.4103 7.49998 20.1703 7.53998 19.9303 7.69998C19.6903 7.85998 19.5503 8.07998 19.5103 8.35998C19.4703 8.63998 19.5303 8.89998 19.6903 9.13998C19.8503 9.37998 20.0503 9.49998 20.2903 9.49998ZM36.8503 16.82C36.1303 12.82 34.3103 9.35998 31.3903 6.43998C28.4703 3.51998 24.9703 1.69998 20.8903 0.979981C20.6503 0.979981 20.4103 1.05998 20.1703 1.21998C19.9303 1.37998 19.7903 1.59998 19.7503 1.87998C19.7103 2.15998 19.7703 2.39998 19.9303 2.59998C20.0903 2.79998 20.3303 2.93998 20.6503 3.01998C24.2503 3.65998 27.3503 5.27998 29.9503 7.87998C32.5503 10.48 34.1703 13.58 34.8103 17.18C34.8103 17.42 34.9103 17.62 35.1103 17.78C35.3103 17.94 35.5303 18.02 35.7703 18.02H36.0103C36.2503 18.02 36.4503 17.9 36.6103 17.66C36.7703 17.42 36.8503 17.14 36.8503 16.82Z" fill="#1363DF"/>
</svg>
