<svg width="19" height="19" viewBox="0 0 19 19" fill="none" xmlns="http://www.w3.org/2000/svg">
<path d="M18.92 18.36C18.92 18.2 18.8666 18.04 18.76 17.88L15.4 14.52C16.0933 13.7733 16.6133 12.9067 16.96 11.92C17.3066 10.9333 17.48 9.90667 17.48 8.84C17.48 7.77333 17.2666 6.70667 16.84 5.64C16.4133 4.57333 15.7866 3.62667 14.96 2.8C14.1333 1.97333 13.2 1.34667 12.16 0.92C11.12 0.493334 10.0133 0.280001 8.83998 0.280001C7.66665 0.280001 6.55998 0.493334 5.51998 0.92C4.47998 1.34667 3.53332 1.96 2.67998 2.76C1.61332 3.88 0.879984 5.18667 0.479982 6.68C0.0799828 8.17333 0.0799828 9.66667 0.479982 11.16C0.879984 12.6533 1.61332 13.9333 2.67998 15C3.74665 16.0667 4.98665 16.8133 6.39998 17.24C7.81332 17.6667 9.23998 17.72 10.68 17.4C12.12 17.08 13.3733 16.44 14.44 15.48L17.8 18.84C17.96 18.9467 18.12 19 18.28 19C18.44 19 18.5866 18.9333 18.72 18.8C18.8533 18.6667 18.92 18.52 18.92 18.36ZM3.63998 14.12C2.94665 13.4267 2.41332 12.6267 2.03998 11.72C1.66665 10.8133 1.47998 9.88 1.47998 8.92C1.47998 7.96 1.66665 7.02667 2.03998 6.12C2.41332 5.21333 2.94665 4.41333 3.63998 3.72C4.33332 3.02667 5.13332 2.49333 6.03998 2.12C6.94665 1.74667 7.87998 1.56 8.83998 1.56C9.79998 1.56 10.7333 1.74667 11.64 2.12C12.5466 2.49333 13.3466 3.02667 14.04 3.72C14.9466 4.68 15.5733 5.78667 15.92 7.04C16.2666 8.29333 16.2666 9.54667 15.92 10.8C15.5733 12.0533 14.9333 13.1467 14 14.08C13.0666 15.0133 11.9733 15.6533 10.72 16C9.46665 16.3467 8.21332 16.3467 6.95998 16C5.70665 15.6533 4.59998 15.0267 3.63998 14.12Z" fill="#8D9DB5"/>
</svg>
