<svg width="17" height="17" viewBox="0 0 17 17" fill="none" xmlns="http://www.w3.org/2000/svg">
<g clip-path="url(#clip0_8_694)">
<path d="M9.98676 8.8666C9.84454 8.72438 9.67565 8.67993 9.4801 8.73327C9.28454 8.7866 9.1601 8.90216 9.10676 9.07993C9.05343 9.25771 9.09788 9.41771 9.2401 9.55993C9.66676 9.9866 9.99565 10.4755 10.2268 11.0266C10.4579 11.5777 10.5734 12.1555 10.5734 12.7599C10.5734 12.9733 10.3868 13.1955 10.0134 13.4266C9.6401 13.6577 9.13343 13.8444 8.49343 13.9866C7.74676 14.1644 6.94676 14.2533 6.09343 14.2533C5.2401 14.2533 4.4401 14.1644 3.69343 13.9866C3.05343 13.8444 2.54676 13.6577 2.17343 13.4266C1.8001 13.1955 1.61343 12.9733 1.61343 12.7599C1.61343 12.1555 1.7201 11.5777 1.93343 11.0266C2.14676 10.4755 2.46676 9.9866 2.89343 9.55993C3.03565 9.45327 3.0801 9.30216 3.02676 9.1066C2.97343 8.91105 2.85788 8.7866 2.6801 8.73327C2.50232 8.67993 2.34232 8.72438 2.2001 8.8666C1.70232 9.39993 1.31121 9.99549 1.02676 10.6533C0.74232 11.311 0.600098 12.0133 0.600098 12.7599C0.600098 13.2933 0.866764 13.7466 1.4001 14.1199C1.93343 14.4933 2.61788 14.7777 3.45343 14.9733C4.28899 15.1688 5.16899 15.2666 6.09343 15.2666C7.01788 15.2666 7.89788 15.1688 8.73343 14.9733C9.56899 14.7777 10.2534 14.4933 10.7868 14.1199C11.3201 13.7466 11.5868 13.2933 11.5868 12.7599C11.5868 12.0133 11.4445 11.3022 11.1601 10.6266C10.8757 9.95105 10.4845 9.36438 9.98676 8.8666ZM6.09343 9.23993C6.73343 9.23993 7.3201 9.08882 7.85343 8.7866C8.38676 8.48438 8.81343 8.0666 9.13343 7.53327C9.45343 6.99994 9.61343 6.41327 9.61343 5.77327C9.61343 5.13327 9.45343 4.5466 9.13343 4.01327C8.81343 3.47993 8.38676 3.05327 7.85343 2.73327C7.3201 2.41327 6.73343 2.25327 6.09343 2.25327C5.45343 2.25327 4.86676 2.41327 4.33343 2.73327C3.8001 3.05327 3.37343 3.47993 3.05343 4.01327C2.73343 4.5466 2.57343 5.13327 2.57343 5.77327C2.57343 6.41327 2.73343 6.99994 3.05343 7.53327C3.37343 8.0666 3.8001 8.48438 4.33343 8.7866C4.86676 9.08882 5.45343 9.23993 6.09343 9.23993ZM6.09343 3.2666C6.76899 3.2666 7.35565 3.5066 7.85343 3.9866C8.35121 4.4666 8.6001 5.05327 8.6001 5.7466C8.6001 6.43993 8.35121 7.03549 7.85343 7.53327C7.35565 8.03105 6.76899 8.27993 6.09343 8.27993C5.41788 8.27993 4.83121 8.03105 4.33343 7.53327C3.83565 7.03549 3.58676 6.43993 3.58676 5.7466C3.58676 5.05327 3.83565 4.4666 4.33343 3.9866C4.83121 3.5066 5.41788 3.2666 6.09343 3.2666Z" fill="#1363DF"/>
</g>
<defs>
<clipPath id="clip0_8_694">
<rect width="16" height="16" fill="white" transform="matrix(1 0 0 -1 0.600098 16.7598)"/>
</clipPath>
</defs>
</svg>
