<svg width="33" height="26" viewBox="0 0 33 26" fill="none" xmlns="http://www.w3.org/2000/svg">
<g clip-path="url(#clip0_8_42)">
<path d="M28.6311 11.8693C29.1444 11.4307 29.5478 10.8824 29.8411 10.2245C30.1344 9.56665 30.2811 8.88683 30.2811 8.18507C30.2811 6.86928 29.9144 5.77279 29.1811 4.8956C28.4478 4.0184 27.5678 3.57981 26.5411 3.57981C25.5144 3.57981 24.6344 4.0184 23.9011 4.8956C23.1678 5.77279 22.8011 6.86928 22.8011 8.18507C22.8011 8.88683 22.9294 9.56665 23.1861 10.2245C23.4428 10.8824 23.8278 11.4307 24.3411 11.8693C23.5344 12.2202 22.8011 12.7026 22.1411 13.3166C21.2611 12.4395 20.2344 11.7816 19.0611 11.343C19.7944 10.9044 20.3628 10.2465 20.7661 9.36928C21.1694 8.49209 21.3711 7.52718 21.3711 6.47454C21.3711 4.8956 20.9128 3.55788 19.9961 2.46139C19.0794 1.3649 17.9611 0.816649 16.6411 0.816649C15.3211 0.816649 14.1844 1.3649 13.2311 2.46139C12.2778 3.55788 11.8011 4.8956 11.8011 6.47454C11.8011 7.52718 12.0211 8.49209 12.4611 9.36928C12.9011 10.2465 13.4511 10.9044 14.1111 11.343C13.0111 11.7816 12.0211 12.4395 11.1411 13.3166C10.4811 12.6149 9.74778 12.1324 8.94111 11.8693C9.45445 11.4307 9.83945 10.8824 10.0961 10.2245C10.3528 9.56665 10.4811 8.88683 10.4811 8.18507C10.4811 6.86928 10.1144 5.77279 9.38111 4.8956C8.64778 4.0184 7.76778 3.57981 6.74111 3.57981C5.71445 3.57981 4.83445 4.0184 4.10111 4.8956C3.36778 5.77279 3.00111 6.86928 3.00111 8.18507C3.00111 8.88683 3.14778 9.56665 3.44111 10.2245C3.73445 10.8824 4.10111 11.4307 4.54111 11.8693C3.29445 12.3956 2.24945 13.3386 1.40611 14.6982C0.56278 16.0579 0.141113 17.571 0.141113 19.2377V19.8956H8.17111C8.09778 20.3342 8.06111 20.7728 8.06111 21.2114V21.7377C8.06111 22.8781 8.40945 23.843 9.10611 24.6324C9.80278 25.4219 10.6278 25.8167 11.5811 25.8167H21.7011C22.6544 25.8167 23.4611 25.4219 24.1211 24.6324C24.7811 23.843 25.1111 22.8781 25.1111 21.7377V21.2114C25.1111 20.7728 25.1111 20.3342 25.1111 19.8956L33.1411 19.764V19.2377C33.1411 17.571 32.7194 16.0579 31.8761 14.6982C31.0328 13.3386 29.9511 12.3956 28.6311 11.8693ZM23.7911 8.05349C23.7911 7.1763 24.0661 6.43068 24.6161 5.81665C25.1661 5.20261 25.8078 4.8956 26.5411 4.8956C27.2744 4.8956 27.9161 5.20261 28.4661 5.81665C29.0161 6.43068 29.2911 7.19823 29.2911 8.11928C29.2911 9.04033 29.0161 9.80788 28.4661 10.4219C27.9161 11.0359 27.2744 11.343 26.5411 11.343H26.4311C25.6978 11.343 25.0744 11.0359 24.5611 10.4219C24.0478 9.80788 23.7911 9.0184 23.7911 8.05349ZM12.9011 6.47454C12.9011 5.24647 13.2678 4.19384 14.0011 3.31665C14.7344 2.43946 15.6144 2.00086 16.6411 2.00086C17.6678 2.00086 18.5294 2.43946 19.2261 3.31665C19.9228 4.19384 20.2711 5.24647 20.2711 6.47454C20.2711 7.70261 19.9411 8.73332 19.2811 9.56665C18.6211 10.4 17.8144 10.8605 16.8611 10.9482H16.4211C15.3944 10.8605 14.5511 10.4 13.8911 9.56665C13.2311 8.73332 12.9011 7.70261 12.9011 6.47454ZM3.99111 8.05349C3.99111 7.1763 4.26611 6.43068 4.81611 5.81665C5.36611 5.20261 6.00778 4.8956 6.74111 4.8956C7.47445 4.8956 8.11611 5.20261 8.66611 5.81665C9.21611 6.43068 9.49111 7.19823 9.49111 8.11928C9.49111 9.04033 9.23445 9.80788 8.72111 10.4219C8.20778 11.0359 7.54778 11.343 6.74111 11.343H6.63111C5.89778 11.343 5.27445 11.0359 4.76111 10.4219C4.24778 9.80788 3.99111 9.0184 3.99111 8.05349ZM8.28111 18.5798H1.24111C1.38778 16.9131 1.97445 15.5096 3.00111 14.3693C4.02778 13.2289 5.27445 12.6588 6.74111 12.6588C8.13445 12.6588 9.34445 13.1851 10.3711 14.2377C9.34445 15.4658 8.64778 16.9131 8.28111 18.5798ZM24.1211 21.7377C24.1211 22.5272 23.8828 23.207 23.4061 23.7772C22.9294 24.3474 22.3611 24.6324 21.7011 24.6324H11.5811C10.9211 24.6324 10.3528 24.3474 9.87611 23.7772C9.39945 23.207 9.16111 22.5272 9.16111 21.7377V21.2114C9.16111 19.5447 9.47278 18.0535 10.0961 16.7377C10.7194 15.4219 11.5994 14.3474 12.7361 13.514C13.8728 12.6807 15.1011 12.264 16.4211 12.264H16.8611C18.1811 12.264 19.3911 12.6807 20.4911 13.514C21.5911 14.3474 22.4711 15.4219 23.1311 16.7377C23.7911 18.0535 24.1211 19.5447 24.1211 21.2114V21.7377ZM24.8911 18.5798C24.5244 16.9131 23.8644 15.4658 22.9111 14.2377C23.9378 13.1851 25.1111 12.6588 26.4311 12.6588H26.5411C28.0078 12.6588 29.2544 13.2289 30.2811 14.3693C31.3078 15.5096 31.8944 16.9131 32.0411 18.5798H24.8911Z" fill="white"/>
</g>
<defs>
<clipPath id="clip0_8_42">
<rect width="33" height="26" fill="white" transform="matrix(1 0 0 -1 0 26)"/>
</clipPath>
</defs>
</svg>
