<svg width="8" height="14" viewBox="0 0 8 14" fill="none" xmlns="http://www.w3.org/2000/svg">
<path d="M7.0601 0.85498C7.2201 0.85498 7.3501 0.90498 7.4501 1.00498C7.5501 1.10498 7.6001 1.23498 7.6001 1.39498C7.6001 1.55498 7.5601 1.69498 7.4801 1.81498L2.2001 7.03498L7.4801 12.255C7.5601 12.375 7.6001 12.515 7.6001 12.675C7.6001 12.835 7.5501 12.965 7.4501 13.065C7.3501 13.165 7.2201 13.215 7.0601 13.215C6.9001 13.215 6.7601 13.155 6.6401 13.035L1.0001 7.45498C0.920098 7.33498 0.880098 7.19498 0.880098 7.03498C0.880098 6.87498 0.920098 6.73498 1.0001 6.61498L6.6401 1.03498C6.7601 0.91498 6.9001 0.85498 7.0601 0.85498Z" fill="white"/>
</svg>
