<svg width="7" height="13" viewBox="0 0 7 13" fill="none" xmlns="http://www.w3.org/2000/svg">
<path d="M0.54 12.98C0.38 12.98 0.25 12.93 0.15 12.83C0.05 12.73 0 12.6 0 12.44C0 12.28 0.04 12.14 0.12 12.02L5.4 6.79998L0.12 1.57998C0.04 1.45998 0 1.31998 0 1.15998C0 0.999981 0.05 0.869981 0.15 0.76998C0.25 0.669981 0.38 0.619981 0.54 0.619981C0.7 0.619981 0.84 0.67998 0.96 0.799981L6.6 6.37998C6.68 6.49998 6.72 6.63998 6.72 6.79998C6.72 6.95998 6.68 7.09998 6.6 7.21998L0.96 12.8C0.84 12.92 0.7 12.98 0.54 12.98Z" fill="white"/>
</svg>
