<svg width="40" height="34" viewBox="0 0 40 34" fill="none" xmlns="http://www.w3.org/2000/svg">
<path d="M36.9632 0.566406H2.64318C2.05651 0.566406 1.56762 0.786407 1.17651 1.22641C0.785399 1.66641 0.589844 2.17974 0.589844 2.76641V26.0864C0.589844 26.6731 0.785399 27.162 1.17651 27.5531C1.56762 27.9442 2.05651 28.1397 2.64318 28.1397H15.5498L14.5232 32.2464H11.5898C11.2965 32.2464 11.0765 32.3686 10.9298 32.6131C10.7832 32.8575 10.7832 33.0775 10.9298 33.2731C11.0765 33.4686 11.2965 33.5664 11.5898 33.5664H28.0165C28.3098 33.5664 28.5298 33.4686 28.6765 33.2731C28.8232 33.0775 28.8232 32.8575 28.6765 32.6131C28.5298 32.3686 28.3098 32.2464 28.0165 32.2464H25.0832L24.0565 28.1397H36.9632C37.5498 28.1397 38.0387 27.9442 38.4298 27.5531C38.821 27.162 39.0165 26.6731 39.0165 26.0864V2.76641C39.0165 2.17974 38.821 1.69085 38.4298 1.29974C38.0387 0.90863 37.5498 0.713074 36.9632 0.713074V0.566406ZM2.64318 2.03307H36.9632C37.1587 2.03307 37.3298 2.10641 37.4765 2.25307C37.6232 2.39974 37.6965 2.57085 37.6965 2.76641V23.2997H1.90984V2.76641C1.90984 2.57085 1.98318 2.39974 2.12984 2.25307C2.27651 2.10641 2.44762 2.03307 2.64318 2.03307ZM23.7632 32.2464H15.8432L16.8698 28.1397H22.7365L23.7632 32.2464ZM36.9632 26.8197H2.64318C2.44762 26.8197 2.27651 26.7464 2.12984 26.5997C1.98318 26.4531 1.90984 26.282 1.90984 26.0864V24.7664H37.6965V26.0864C37.6965 26.282 37.6232 26.4531 37.4765 26.5997C37.3298 26.7464 37.1587 26.8197 36.9632 26.8197ZM13.6432 20.5131H25.9632C26.2565 20.5131 26.4765 20.3664 26.6232 20.0731C26.7698 19.7797 26.6965 19.5353 26.4032 19.3397L19.3632 13.0331L26.4032 6.72641C26.6965 6.43307 26.7698 6.13974 26.6232 5.84641C26.4765 5.55307 26.2565 5.40641 25.9632 5.40641H13.6432C13.4476 5.40641 13.2765 5.47974 13.1298 5.62641C12.9832 5.77307 12.9098 5.94419 12.9098 6.13974V19.9264C12.9098 20.122 12.9832 20.2686 13.1298 20.3664C13.2765 20.4642 13.4476 20.5131 13.6432 20.5131ZM24.2032 19.1931H14.3765V17.4331L18.1898 13.9131L24.2032 19.1931ZM14.3765 15.6731V12.0064L20.0965 6.87307H24.2032L14.3765 15.6731ZM18.0432 6.87307L14.3765 10.0997V6.87307H18.0432Z" fill="#1363DF"/>
</svg>
