<svg width="45" height="38" viewBox="0 0 45 38" fill="none" xmlns="http://www.w3.org/2000/svg">
<path d="M37.1196 0.65963C35.4574 0.65963 34.0396 1.2463 32.8663 2.41963C31.6929 3.59296 31.1063 5.03519 31.1063 6.7463C31.1063 8.45741 31.6929 9.87519 32.8663 10.9996C34.0396 12.1241 35.4574 12.6863 37.1196 12.6863C38.7818 12.6863 40.2241 12.0996 41.4463 10.9263C42.6685 9.75296 43.2796 8.33519 43.2796 6.67296C43.2796 5.01074 42.6929 3.59296 41.5196 2.41963C40.3463 1.2463 38.8796 0.65963 37.1196 0.65963ZM37.1196 11.3663C35.8485 11.3663 34.7485 10.9019 33.8196 9.97296C32.8907 9.04408 32.4263 7.94407 32.4263 6.67296C32.4263 5.40185 32.8907 4.30185 33.8196 3.37296C34.7485 2.44408 35.8729 1.97963 37.1929 1.97963C38.5129 1.97963 39.6374 2.44408 40.5663 3.37296C41.4952 4.30185 41.9596 5.4263 41.9596 6.7463C41.9596 8.0663 41.4952 9.1663 40.5663 10.0463C39.6374 10.9263 38.4885 11.3663 37.1196 11.3663ZM39.0263 7.69963C39.0263 7.60185 39.0263 7.55296 39.0263 7.55296L38.5863 6.81963L36.6796 5.79296L36.5329 5.2063L36.8263 4.7663C36.9241 4.66852 36.9729 4.61963 36.9729 4.61963H37.2663L38.4396 4.91296L38.5863 3.73963L37.7063 3.59296L37.5596 2.85963H36.6796V3.59296L36.2396 3.73963L35.9463 4.03296L35.6529 4.3263L35.3596 4.91296V5.35296L35.5063 6.0863L36.2396 6.81963L37.1196 7.25963L37.7063 7.69963L37.8529 8.2863L37.7063 8.43296L37.4129 8.57963L36.5329 8.7263L35.3596 8.2863L35.2129 9.45963L35.3596 9.6063C35.4574 9.50852 35.5552 9.50852 35.6529 9.6063L36.6796 9.75296V10.633H37.7063V9.75296L38.4396 9.45963L38.7329 9.1663L39.0263 8.43296V7.69963ZM34.3329 13.5663C34.1374 13.3707 33.9663 13.273 33.8196 13.273C33.6729 13.273 33.5018 13.3219 33.3063 13.4196L26.5596 18.6996L17.9063 15.1796C17.7107 15.0819 17.5152 15.0819 17.3196 15.1796L7.93294 21.9263C7.83516 22.0241 7.76183 22.1463 7.71294 22.293C7.66405 22.4396 7.6885 22.6107 7.78628 22.8063C7.88405 23.0019 8.03072 23.0996 8.22628 23.0996C8.42183 23.0996 8.5685 23.0507 8.66628 22.953L17.7596 16.4996L26.4129 20.1663C26.7063 20.2641 26.9507 20.2152 27.1463 20.0196L34.1863 14.4463C34.2841 14.3485 34.3574 14.2019 34.4063 14.0063C34.4552 13.8107 34.4307 13.6641 34.3329 13.5663ZM44.0129 36.2996H40.9329V17.0863C40.9329 16.8907 40.8596 16.7196 40.7129 16.573C40.5663 16.4263 40.3952 16.353 40.1996 16.353H34.1863C33.9907 16.353 33.8196 16.4263 33.6729 16.573C33.5263 16.7196 33.4529 16.8907 33.4529 17.0863V36.2996H31.2529V23.6863C31.2529 23.4907 31.1796 23.3441 31.0329 23.2463C30.8863 23.1485 30.7152 23.0996 30.5196 23.0996H24.3596C24.2618 23.0996 24.1396 23.1485 23.9929 23.2463C23.8463 23.3441 23.7729 23.4907 23.7729 23.6863V36.2996H21.5729V22.6596C21.5729 22.4641 21.4996 22.3174 21.3529 22.2196C21.2063 22.1219 21.0352 22.073 20.8396 22.073H14.8263C14.6307 22.073 14.4596 22.1219 14.3129 22.2196C14.1663 22.3174 14.0929 22.4641 14.0929 22.6596V36.2996H11.8929V26.6196C11.8929 26.4241 11.8196 26.253 11.6729 26.1063C11.5263 25.9596 11.3552 25.8863 11.1596 25.8863H4.99961C4.80405 25.8863 4.65739 25.9596 4.55961 26.1063C4.46183 26.253 4.41294 26.4241 4.41294 26.6196V36.2996H1.33294C1.13739 36.2996 0.966276 36.3485 0.819609 36.4463C0.672943 36.5441 0.599609 36.6907 0.599609 36.8863C0.599609 37.0819 0.672943 37.253 0.819609 37.3996C0.966276 37.5463 1.13739 37.6196 1.33294 37.6196H43.8663C44.0618 37.6196 44.2329 37.5463 44.3796 37.3996C44.5263 37.253 44.5996 37.1063 44.5996 36.9596C44.5996 36.813 44.5507 36.6663 44.4529 36.5196C44.3552 36.373 44.2085 36.2996 44.0129 36.2996ZM10.4263 36.2996H5.73294V27.2063H10.4263V36.2996ZM20.2529 36.2996H15.4129V23.393H20.2529V36.2996ZM29.9329 36.2996H25.0929V24.4196H29.9329V36.2996ZM39.6129 36.2996H34.7729V17.673H39.6129V36.2996Z" fill="#1363DF"/>
</svg>
