<svg width="45" height="45" viewBox="0 0 45 45" fill="none" xmlns="http://www.w3.org/2000/svg">
<g clip-path="url(#clip0_8_228)">
<path d="M1.77294 22.7865C1.57739 22.5909 1.33294 22.5665 1.03961 22.7132C0.746276 22.8598 0.599609 23.0798 0.599609 23.3732V42.5865C0.599609 42.782 0.672943 42.9532 0.819609 43.0998C0.966276 43.2465 1.13739 43.3198 1.33294 43.3198H20.5463C20.8396 43.3198 21.0596 43.1732 21.2063 42.8798C21.3529 42.5865 21.3285 42.342 21.1329 42.1465L1.77294 22.7865ZM2.06628 41.8532V24.9865L18.9329 41.8532H2.06628ZM5.43961 39.0665H11.0129C11.3063 39.1643 11.5018 39.0665 11.5996 38.7732C11.6974 38.4798 11.6485 38.1865 11.4529 37.8932L6.02628 32.4665C5.73294 32.2709 5.43961 32.222 5.14628 32.3198C4.85294 32.4176 4.70628 32.6132 4.70628 32.9065V38.4798C4.80405 38.6754 4.90183 38.822 4.99961 38.9198C5.09739 39.0176 5.24405 39.0665 5.43961 39.0665ZM6.17294 34.6665L9.25294 37.7465H6.17294V34.6665ZM8.22628 4.74649H9.54628V6.06649H8.22628V4.74649ZM11.0129 4.74649H12.3329V6.06649H11.0129V4.74649ZM13.6529 4.74649H15.1196V6.06649H13.6529V4.74649ZM14.8263 14.4265C14.5329 14.5243 14.3863 14.7198 14.3863 15.0132V22.6398C14.3863 22.9332 14.5329 23.1287 14.8263 23.2265L20.9863 26.0132C21.1818 26.1109 21.3774 26.1109 21.5729 26.0132L27.7329 23.2265C28.0263 23.1287 28.1729 22.9332 28.1729 22.6398V15.0132C28.1729 14.7198 28.0263 14.5243 27.7329 14.4265L21.5729 11.6398C21.3774 11.6398 21.1818 11.6398 20.9863 11.6398L14.8263 14.4265ZM20.5463 24.3998L15.8529 22.1998V16.1865L20.5463 18.2398V24.3998ZM26.8529 22.1998L22.0129 24.3998V18.2398L26.8529 16.1865V22.1998ZM21.2796 13.1065L25.8263 15.0132L21.2796 17.0665L16.7329 15.0132L21.2796 13.1065ZM20.5463 28.0665H22.0129V31.5865H20.5463V28.0665ZM20.5463 6.79982H22.0129V10.3198H20.5463V6.79982ZM9.25294 13.6932L9.83961 12.3732L12.7729 13.8398L12.1863 15.0132L9.25294 13.6932ZM29.7863 13.6932L32.7196 12.3732L33.3063 13.6932L30.3729 15.0132L29.7863 13.6932ZM9.25294 24.6932L12.1863 23.3732L12.7729 24.6932L9.83961 26.0132L9.25294 24.6932ZM41.2263 33.6398H37.1196V22.9332L41.0796 18.8265C41.6663 18.3376 41.9596 17.7265 41.9596 16.9932C41.9596 16.2598 41.6907 15.6487 41.1529 15.1598C40.6152 14.6709 39.9796 14.4265 39.2463 14.4265C38.5129 14.4265 37.9018 14.6709 37.4129 15.1598L37.1196 15.4532V9.58649C37.1196 9.39094 37.0218 9.24427 36.8263 9.14649L30.0796 2.25316C29.8841 2.0576 29.6885 1.95983 29.4929 1.95983H8.22628C7.44405 1.95983 6.78405 2.22871 6.24628 2.76649C5.7085 3.30427 5.43961 3.96427 5.43961 4.74649V24.6932H6.90628V4.74649C6.90628 4.35538 7.0285 4.03761 7.27294 3.79316C7.51739 3.54871 7.83516 3.42649 8.22628 3.42649H28.9063V7.53316C28.9063 8.31538 29.1752 8.97538 29.7129 9.51316C30.2507 10.0509 30.8618 10.3198 31.5463 10.3198H35.6529V16.9198L24.9463 27.6265C24.8485 27.7243 24.7996 27.8709 24.7996 28.0665L24.0663 31.4398C23.9685 31.6354 24.0174 31.8309 24.2129 32.0265C24.4085 32.222 24.6041 32.3198 24.7996 32.3198L28.3196 31.5865C28.4174 31.5865 28.5152 31.5376 28.6129 31.4398L35.6529 24.2532V33.6398H22.0129C21.8174 33.6398 21.6463 33.7132 21.4996 33.8598C21.3529 34.0065 21.2796 34.1776 21.2796 34.3732V36.4265H17.9063V37.7465H21.2796V39.7998C21.2796 39.9954 21.3529 40.1665 21.4996 40.3132C21.6463 40.4598 21.8174 40.5332 22.0129 40.5332H41.2263C41.4218 40.5332 41.5929 40.4598 41.7396 40.3132C41.8863 40.1665 41.9596 39.9954 41.9596 39.7998V34.3732C41.9596 34.1776 41.8863 34.0065 41.7396 33.8598C41.5929 33.7132 41.4218 33.6398 41.2263 33.6398ZM30.2263 7.53316V4.30649L34.7729 8.85316H31.5463C31.1552 8.85316 30.8374 8.73094 30.5929 8.48649C30.3485 8.24205 30.2263 7.92427 30.2263 7.53316ZM26.4129 28.0665L37.1196 17.3598L38.8796 19.2665L28.1729 29.9732L26.4129 28.0665ZM39.3196 15.7465C39.8085 15.7465 40.1752 16.0154 40.4196 16.5532C40.6641 17.0909 40.5907 17.5554 40.1996 17.9465L39.9063 18.2398L37.9996 16.4798L38.4396 16.1865C38.6352 15.8932 38.9285 15.7465 39.3196 15.7465ZM25.8263 29.5332L26.7063 30.4132L25.5329 30.7065L25.8263 29.5332ZM40.4929 39.0665H22.5996V34.9598H24.0663V36.4265H25.3863V34.9598H26.8529V36.4265H28.1729V34.9598H29.4929V36.4265H30.9596V34.9598H32.2796V36.4265H33.5996V34.9598H35.0663V36.4265H36.3863V34.9598H37.8529V36.4265H39.1729V34.9598H40.4929V39.0665Z" fill="#1363DF"/>
</g>
<defs>
<clipPath id="clip0_8_228">
<rect width="44" height="44" fill="white" transform="matrix(1 0 0 -1 0.599609 44.6396)"/>
</clipPath>
</defs>
</svg>
