<svg width="42" height="42" viewBox="0 0 42 42" fill="none" xmlns="http://www.w3.org/2000/svg">
<path d="M18.4832 2.45316C18.3854 2.35538 18.3365 2.20871 18.3365 2.01316C18.3365 1.8176 18.3854 1.67094 18.4832 1.57316L19.6565 0.693161C20.1454 0.302048 20.6832 0.106491 21.2698 0.106491C21.8565 0.106491 22.3943 0.302048 22.8832 0.693161L24.0565 1.57316C24.1543 1.67094 24.2032 1.8176 24.2032 2.01316C24.2032 2.20871 24.1543 2.37983 24.0565 2.52649C23.9587 2.67316 23.8121 2.74649 23.6165 2.74649C23.421 2.74649 23.2743 2.69761 23.1765 2.59983L22.0032 1.71983C21.8076 1.52427 21.5632 1.42649 21.2698 1.42649C20.9765 1.42649 20.7321 1.52427 20.5365 1.71983L19.3632 2.59983C19.2654 2.69761 19.1187 2.74649 18.9232 2.74649C18.7276 2.74649 18.581 2.64872 18.4832 2.45316ZM41.9498 18.4398V37.7998C41.9498 38.7776 41.6076 39.6087 40.9232 40.2932C40.2387 40.9776 39.4076 41.3198 38.4298 41.3198H4.10984C3.13207 41.3198 2.30095 40.9776 1.61651 40.2932C0.932066 39.6087 0.589844 38.7776 0.589844 37.7998V18.4398C0.589844 17.3643 1.02984 16.4843 1.90984 15.7998L2.93651 14.9198C3.13207 14.822 3.30318 14.7732 3.44984 14.7732C3.59651 14.7732 3.74318 14.8465 3.88984 14.9932C4.03651 15.1398 4.10984 15.3109 4.10984 15.5065C4.10984 15.702 4.01207 15.8487 3.81651 15.9465L2.49651 17.2665L20.5365 32.6665C20.7321 32.862 20.9765 32.9598 21.2698 32.9598C21.5632 32.9598 21.8076 32.862 22.0032 32.6665L40.0432 17.2665L38.7232 15.9465C38.5276 15.8487 38.4298 15.702 38.4298 15.5065C38.4298 15.3109 38.5032 15.1398 38.6498 14.9932C38.7965 14.8465 38.9432 14.7732 39.0898 14.7732C39.2365 14.7732 39.4076 14.822 39.6032 14.9198L40.6298 15.7998C41.5098 16.4843 41.9498 17.3643 41.9498 18.4398ZM40.4832 37.7998V18.7332L28.6032 28.8532L40.1898 38.8265C40.3854 38.5332 40.4832 38.1909 40.4832 37.7998ZM13.9365 28.8532L2.05651 18.7332V37.7998C2.05651 38.1909 2.15429 38.5332 2.34984 38.8265L13.9365 28.8532ZM38.4298 39.8532C38.7232 39.8532 38.9676 39.8043 39.1632 39.7065L27.5765 29.7332L22.8832 33.8398C22.3943 34.2309 21.8565 34.4265 21.2698 34.4265C20.6832 34.4265 20.1454 34.2309 19.6565 33.8398L14.9632 29.7332L3.37651 39.7065C3.57207 39.8043 3.81651 39.8532 4.10984 39.8532H38.4298ZM6.16318 18.4398C6.35873 18.4398 6.52984 18.3665 6.67651 18.2198C6.82318 18.0732 6.89651 17.902 6.89651 17.7065V7.58649C6.89651 6.99982 7.09207 6.51094 7.48318 6.11983C7.87429 5.72871 8.36318 5.53316 8.94984 5.53316H33.5898C34.1765 5.53316 34.6654 5.72871 35.0565 6.11983C35.4476 6.51094 35.6432 6.99982 35.6432 7.58649V17.7065C35.6432 17.902 35.7165 18.0732 35.8632 18.2198C36.0098 18.3665 36.181 18.4398 36.3765 18.4398C36.5721 18.4398 36.7432 18.3665 36.8898 18.2198C37.0365 18.0732 37.1098 17.902 37.1098 17.7065V7.58649C37.1098 6.60872 36.7676 5.80205 36.0832 5.16649C35.3987 4.53094 34.5676 4.16427 33.5898 4.06649H8.94984C7.97207 4.16427 7.14095 4.53094 6.45651 5.16649C5.77207 5.80205 5.42984 6.60872 5.42984 7.58649V17.7065C5.42984 17.902 5.50318 18.0732 5.64984 18.2198C5.79651 18.3665 5.96762 18.4398 6.16318 18.4398ZM13.6432 22.6932V19.0265C12.7632 18.7332 12.0543 18.1465 11.5165 17.2665C10.9787 16.3865 10.8076 15.4576 11.0032 14.4798C11.1987 13.502 11.6876 12.6709 12.4698 11.9865C13.2521 11.302 14.1321 10.9598 15.1098 10.9598H17.1632C19.021 10.9598 20.5854 10.5687 21.8565 9.78649C22.6387 9.39538 23.1765 8.95538 23.4698 8.46649C23.6654 8.27094 23.9098 8.22205 24.2032 8.31982C24.4965 8.4176 24.6432 8.61316 24.6432 8.90649V13.0132H25.3765C25.9632 13.0132 26.4521 13.2332 26.8432 13.6732C27.2343 14.1132 27.4298 14.602 27.4298 15.1398C27.4298 15.6776 27.2343 16.1665 26.8432 16.6065C26.4521 17.0465 25.9632 17.2665 25.3765 17.2665H24.6432V21.3732C24.6432 21.6665 24.4965 21.862 24.2032 21.9598C23.9098 22.0576 23.641 21.9354 23.3965 21.5932C23.1521 21.2509 22.7365 20.8843 22.1498 20.4932C20.8787 19.8087 19.461 19.4176 17.8965 19.3198V22.6932C17.8965 23.2798 17.6765 23.7687 17.2365 24.1598C16.7965 24.5509 16.3076 24.7465 15.7698 24.7465C15.2321 24.7465 14.7432 24.5509 14.3032 24.1598C13.8632 23.7687 13.6432 23.2798 13.6432 22.6932ZM24.6432 14.4798V15.7998H25.3765C25.5721 15.7998 25.7432 15.7265 25.8898 15.5798C26.0365 15.4332 26.1098 15.2865 26.1098 15.1398C26.1098 14.9932 26.0365 14.8465 25.8898 14.6998C25.7432 14.5532 25.5721 14.4798 25.3765 14.4798H24.6432ZM16.4298 22.6932V19.3198H15.1098V22.6932C15.1098 22.8887 15.1832 23.0598 15.3298 23.2065C15.4765 23.3532 15.6232 23.4265 15.7698 23.4265C15.9165 23.4265 16.0632 23.3532 16.2098 23.2065C16.3565 23.0598 16.4298 22.8887 16.4298 22.6932ZM17.8965 12.4265V17.8532C19.8521 17.9509 21.661 18.5865 23.3232 19.7598V10.5198C21.661 11.6932 19.8521 12.3287 17.8965 12.4265ZM15.1098 17.8532H16.4298V12.4265H15.1098C14.3276 12.4265 13.6676 12.6954 13.1298 13.2332C12.5921 13.7709 12.3232 14.4065 12.3232 15.1398C12.3232 15.8732 12.5921 16.5087 13.1298 17.0465C13.6676 17.5843 14.3276 17.8532 15.1098 17.8532ZM30.9498 14.4798H29.4832C29.2876 14.4798 29.141 14.5532 29.0432 14.6998C28.9454 14.8465 28.8965 14.9932 28.8965 15.1398C28.8965 15.2865 28.9454 15.4332 29.0432 15.5798C29.141 15.7265 29.2876 15.7998 29.4832 15.7998H30.9498C31.1454 15.7998 31.2921 15.7265 31.3898 15.5798C31.4876 15.4332 31.5365 15.2865 31.5365 15.1398C31.5365 14.9932 31.4876 14.8465 31.3898 14.6998C31.2921 14.5532 31.1454 14.4798 30.9498 14.4798ZM29.7765 17.2665C29.581 17.1687 29.361 17.1932 29.1165 17.3398C28.8721 17.4865 28.7743 17.682 28.8232 17.9265C28.8721 18.1709 28.9943 18.342 29.1898 18.4398L30.6565 19.1732C30.7543 19.2709 30.901 19.2954 31.0965 19.2465C31.2921 19.1976 31.4387 19.0754 31.5365 18.8798C31.6343 18.6843 31.6343 18.5132 31.5365 18.3665C31.4387 18.2198 31.341 18.0976 31.2432 17.9998L29.7765 17.2665ZM29.4832 13.0132C29.581 13.0132 29.6787 13.0132 29.7765 13.0132L31.2432 12.2798C31.341 12.182 31.4387 12.0598 31.5365 11.9132C31.6343 11.7665 31.6343 11.5954 31.5365 11.3998C31.4387 11.2043 31.2921 11.082 31.0965 11.0332C30.901 10.9843 30.7543 11.0087 30.6565 11.1065L29.1898 11.8398C28.8965 11.9376 28.7987 12.1576 28.8965 12.4998C28.9943 12.842 29.1898 13.0132 29.4832 13.0132Z" fill="#1363DF"/>
</svg>
