<svg width="39" height="42" viewBox="0 0 39 42" fill="none" xmlns="http://www.w3.org/2000/svg">
<path d="M19.6463 16.4464C18.3751 16.4464 17.2751 16.9108 16.3463 17.8397C15.4174 18.7686 14.9529 19.8686 14.9529 21.1397C14.9529 22.4108 15.4174 23.5108 16.3463 24.4397C17.2751 25.3686 18.3751 25.833 19.6463 25.833C20.9174 25.833 22.0174 25.3686 22.9463 24.4397C23.8751 23.5108 24.3396 22.4108 24.3396 21.1397C24.3396 19.8686 23.8751 18.7686 22.9463 17.8397C22.0174 16.9108 20.9174 16.4464 19.6463 16.4464ZM19.6463 24.6597C18.6685 24.6597 17.8374 24.3175 17.1529 23.633C16.4685 22.9486 16.1263 22.1175 16.1263 21.1397C16.1263 20.1619 16.4685 19.3308 17.1529 18.6464C17.8374 17.9619 18.6685 17.6197 19.6463 17.6197C20.624 17.6197 21.4551 17.9619 22.1396 18.6464C22.824 19.3308 23.1663 20.1619 23.1663 21.1397C23.1663 22.1175 22.824 22.9486 22.1396 23.633C21.4551 24.3175 20.624 24.6597 19.6463 24.6597ZM21.6996 20.553C21.504 20.553 21.3574 20.6019 21.2596 20.6997C21.1618 20.7975 21.1129 20.9441 21.1129 21.1397C21.1129 21.7264 20.8685 22.1664 20.3796 22.4597C20.2818 22.4597 20.2085 22.5575 20.1596 22.753C20.1107 22.9486 20.1107 23.1197 20.1596 23.2664C20.2085 23.413 20.3307 23.5108 20.5263 23.5597C20.7218 23.6086 20.8685 23.5841 20.9663 23.4864C21.3574 23.193 21.6751 22.8508 21.9196 22.4597C22.164 22.0686 22.2863 21.6286 22.2863 21.1397C22.2863 20.9441 22.2374 20.7975 22.1396 20.6997C22.0418 20.6019 21.8951 20.553 21.6996 20.553ZM35.1929 19.673C35.3885 19.7708 35.6329 19.8197 35.9263 19.8197C36.4151 19.8197 36.8796 19.673 37.3196 19.3797C37.7596 19.0864 38.0774 18.6953 38.2729 18.2064C38.4685 17.7175 38.5174 17.2041 38.4196 16.6664C38.3218 16.1286 38.0774 15.6641 37.6863 15.273L37.5396 15.1264C38.0285 13.4641 37.9307 12.0464 37.2463 10.873C36.5618 9.6997 35.3151 8.91748 33.5063 8.52637C31.6974 8.13526 29.4729 8.18415 26.8329 8.67303C25.9529 6.13081 24.9018 4.17526 23.6796 2.80637C22.4574 1.43748 21.1129 0.753036 19.6463 0.753036C18.1796 0.753036 16.8351 1.43748 15.6129 2.80637C14.3907 4.17526 13.3396 6.13081 12.4596 8.67303C9.81959 8.18415 7.59515 8.13526 5.78626 8.52637C3.97737 8.91748 2.7307 9.6997 2.04626 10.873C1.36181 12.0464 1.21515 13.4641 1.60626 15.1264C1.11737 15.5175 0.79959 16.0064 0.652923 16.593C0.506257 17.1797 0.57959 17.7664 0.872923 18.353C1.16626 18.9397 1.6307 19.3553 2.26626 19.5997C2.90181 19.8441 3.51292 19.8686 4.09959 19.673L5.27292 21.1397C3.51292 23.0953 2.33959 24.9775 1.75292 26.7864C1.16626 28.5953 1.26403 30.0864 2.04626 31.2597C3.02403 33.1175 5.12626 34.0464 8.35292 34.0464C9.72181 34.0464 11.0907 33.8997 12.4596 33.6064C13.3396 36.1486 14.3907 38.1041 15.6129 39.473C16.8351 40.8419 18.1307 41.5264 19.4996 41.5264C20.8685 41.5264 22.1885 40.9397 23.4596 39.7664C24.0463 39.9619 24.6329 39.9864 25.2196 39.8397C25.8063 39.693 26.2951 39.3508 26.6863 38.813C27.0774 38.2753 27.224 37.6886 27.1263 37.053C27.0285 36.4175 26.784 35.8553 26.3929 35.3664H26.2463L26.8329 33.6064C28.2018 33.8997 29.5707 34.0464 30.9396 34.0464C34.1663 34.0464 36.2685 33.1175 37.2463 31.2597C38.0285 30.0864 38.1263 28.5953 37.5396 26.7864C36.9529 24.9775 35.7796 23.0953 34.0196 21.1397L35.1929 19.673ZM36.9529 18.2064C36.6596 18.4997 36.2929 18.6464 35.8529 18.6464C35.4129 18.6464 35.0951 18.4997 34.8996 18.2064C34.6063 17.913 34.4596 17.5708 34.4596 17.1797C34.4596 16.7886 34.5818 16.4464 34.8263 16.153C35.0707 15.8597 35.4129 15.713 35.8529 15.713C36.2929 15.713 36.6596 15.8597 36.9529 16.153C37.2463 16.4464 37.3929 16.7886 37.3929 17.1797C37.3929 17.5708 37.2463 17.913 36.9529 18.2064ZM36.2196 11.6064C36.7085 12.3886 36.8063 13.3664 36.5129 14.5397C35.9263 14.4419 35.364 14.5153 34.8263 14.7597C34.2885 15.0041 33.8729 15.3708 33.5796 15.8597C33.2863 16.3486 33.164 16.8864 33.2129 17.473C33.2618 18.0597 33.5307 18.5975 34.0196 19.0864L33.2863 20.2597C31.8196 18.6953 30.2063 17.2775 28.4463 16.0064C28.2507 13.953 27.8596 11.8997 27.2729 9.84637C29.5218 9.35748 31.4285 9.28415 32.9929 9.62637C34.5574 9.96859 35.6329 10.6286 36.2196 11.6064ZM26.0996 32.1397C24.3396 31.7486 22.6774 31.2597 21.1129 30.673C22.1885 30.0864 23.2151 29.5241 24.1929 28.9864C25.1707 28.4486 26.1485 27.8375 27.1263 27.153C26.8329 28.8153 26.4907 30.4775 26.0996 32.1397ZM13.1929 32.1397C12.8018 30.4775 12.4596 28.8153 12.1663 27.153C13.144 27.8375 14.1218 28.4486 15.0996 28.9864C16.0774 29.5241 17.104 30.0864 18.1796 30.673C16.6151 31.2597 14.9529 31.7486 13.1929 32.1397ZM13.1929 10.1397C14.9529 10.5308 16.6151 11.0197 18.1796 11.6064C17.104 12.193 16.0774 12.7553 15.0996 13.293C14.1218 13.8308 13.144 14.4419 12.1663 15.1264C12.4596 13.4641 12.8018 11.8019 13.1929 10.1397ZM10.6996 24.6597C9.3307 23.5841 8.05959 22.4108 6.88626 21.1397C8.05959 19.8686 9.3307 18.6953 10.6996 17.6197C10.6018 18.793 10.5529 19.9664 10.5529 21.1397C10.5529 22.313 10.6018 23.4864 10.6996 24.6597ZM15.6863 27.8864C14.4151 27.2019 13.1929 26.4197 12.0196 25.5397C11.824 24.073 11.7263 22.6064 11.7263 21.1397C11.7263 19.673 11.824 18.2064 12.0196 16.7397C13.1929 15.8597 14.4151 15.053 15.6863 14.3197C16.9574 13.5864 18.2774 12.9264 19.6463 12.3397C21.0151 12.9264 22.3351 13.5864 23.6063 14.3197C24.8774 15.053 26.0996 15.8597 27.2729 16.7397C27.4685 18.2064 27.5663 19.673 27.5663 21.1397C27.5663 22.6064 27.4685 24.073 27.2729 25.5397C26.0996 26.4197 24.8774 27.2264 23.6063 27.9597C22.3351 28.693 21.0151 29.353 19.6463 29.9397C18.2774 29.353 16.9574 28.6686 15.6863 27.8864ZM26.0996 10.1397C26.4907 11.7041 26.8329 13.3664 27.1263 15.1264C26.1485 14.4419 25.1707 13.8308 24.1929 13.293C23.2151 12.7553 22.1885 12.193 21.1129 11.6064C22.6774 11.0197 24.3396 10.5308 26.0996 10.1397ZM28.5929 17.6197C29.9618 18.6953 31.2329 19.8686 32.4063 21.1397C31.2329 22.4108 29.9618 23.5841 28.5929 24.6597C28.6907 23.4864 28.7396 22.313 28.7396 21.1397C28.7396 19.9664 28.6907 18.793 28.5929 17.6197ZM19.6463 1.92637C20.8196 1.92637 21.9196 2.53748 22.9463 3.7597C23.9729 4.98193 24.8774 6.71748 25.6596 8.96637C23.6063 9.45526 21.6018 10.1397 19.6463 11.0197C17.6907 10.1397 15.6863 9.45526 13.6329 8.96637C14.4151 6.71748 15.3196 4.98193 16.3463 3.7597C17.3729 2.53748 18.4729 1.92637 19.6463 1.92637ZM2.19292 18.2064C1.99737 17.913 1.87515 17.5953 1.82626 17.253C1.77737 16.9108 1.8507 16.593 2.04626 16.2997C2.24181 16.0064 2.5107 15.8108 2.85292 15.713C3.19515 15.6153 3.53737 15.6397 3.87959 15.7864C4.22181 15.933 4.46626 16.153 4.61292 16.4464C4.75959 16.7397 4.80848 17.0575 4.75959 17.3997C4.7107 17.7419 4.53959 18.0353 4.24626 18.2797C3.95292 18.5241 3.6107 18.6464 3.21959 18.6464C2.82848 18.6464 2.48626 18.4997 2.19292 18.2064ZM5.12626 15.273C4.44181 14.5886 3.65959 14.3441 2.77959 14.5397C2.48626 13.3664 2.60848 12.3397 3.14626 11.4597C3.68403 10.5797 4.73515 9.96859 6.29959 9.62637C7.86403 9.28415 9.7707 9.35748 12.0196 9.84637C11.4329 11.8997 11.0418 13.953 10.8463 16.0064C9.08626 17.2775 7.47292 18.6953 6.00626 20.2597L5.12626 19.0864C5.71292 18.4997 6.00626 17.8397 6.00626 17.1064C6.00626 16.373 5.71292 15.7619 5.12626 15.273ZM3.07292 30.673C2.48626 29.6953 2.46181 28.4486 2.99959 26.933C3.53737 25.4175 4.53959 23.7797 6.00626 22.0197C7.47292 23.5841 9.08626 25.0019 10.8463 26.273C11.0418 28.3264 11.4329 30.3797 12.0196 32.433C9.7707 32.9219 7.86403 32.9953 6.29959 32.653C4.73515 32.3108 3.65959 31.6508 3.07292 30.673ZM25.5129 38.2997C25.2196 38.593 24.9018 38.7641 24.5596 38.813C24.2174 38.8619 23.8996 38.7886 23.6063 38.593C23.3129 38.3975 23.1174 38.1286 23.0196 37.7864C22.9218 37.4441 22.9463 37.1019 23.0929 36.7597C23.2396 36.4175 23.4596 36.173 23.7529 36.0264C24.0463 35.8797 24.364 35.8308 24.7063 35.8797C25.0485 35.9286 25.3418 36.0997 25.5863 36.393C25.8307 36.6864 25.9529 37.0041 25.9529 37.3464C25.9529 37.6886 25.8063 38.0064 25.5129 38.2997ZM24.4863 34.633C23.9974 34.633 23.5329 34.7797 23.0929 35.073C22.6529 35.3664 22.3107 35.733 22.0663 36.173C21.8218 36.613 21.7485 37.1019 21.8463 37.6397C21.944 38.1775 22.1396 38.6419 22.4329 39.033C21.5529 39.913 20.5751 40.353 19.4996 40.353C18.424 40.353 17.3729 39.7419 16.3463 38.5197C15.3196 37.2975 14.4151 35.5619 13.6329 33.313C15.6863 32.8241 17.6907 32.1397 19.6463 31.2597C21.6018 32.1397 23.6063 32.8241 25.6596 33.313L25.0729 34.7797C24.8774 34.6819 24.6818 34.633 24.4863 34.633ZM36.2196 30.673C35.6329 31.6508 34.5574 32.3108 32.9929 32.653C31.4285 32.9953 29.5218 32.9219 27.2729 32.433C27.8596 30.3797 28.2507 28.3264 28.4463 26.273C30.2063 25.0019 31.8196 23.5841 33.2863 22.0197C34.7529 23.7797 35.7551 25.4175 36.2929 26.933C36.8307 28.4486 36.8063 29.6953 36.2196 30.673Z" fill="#1363DF"/>
</svg>
