<svg width="14" height="14" viewBox="0 0 14 14" fill="none" xmlns="http://www.w3.org/2000/svg">
<path d="M3.02979 13.6787H0.305176V4.91895H3.02979V13.6787ZM1.65283 3.74707C0.803223 3.74707 0.100098 3.01465 0.100098 2.13574C0.100098 1.28613 0.803223 0.583008 1.65283 0.583008C2.53174 0.583008 3.23486 1.28613 3.23486 2.13574C3.23486 3.01465 2.53174 3.74707 1.65283 3.74707ZM13.1958 13.6787H10.5005V9.43066C10.5005 8.40527 10.4712 7.11621 9.06494 7.11621C7.65869 7.11621 7.45361 8.2002 7.45361 9.34277V13.6787H4.729V4.91895H7.33643V6.12012H7.36572C7.74658 5.44629 8.62549 4.71387 9.94385 4.71387C12.6978 4.71387 13.2251 6.53027 13.2251 8.87402V13.6787H13.1958Z" fill="#E7EFFC"/>
</svg>
