<svg width="17" height="20" viewBox="0 0 17 20" fill="none" xmlns="http://www.w3.org/2000/svg">
<path d="M13.5268 13.1439C13.1045 13.1439 12.6929 13.2284 12.2918 13.3973C11.8907 13.5661 11.5423 13.8195 11.2468 14.1573L6.11676 10.9906C6.28565 10.6106 6.3701 10.2306 6.3701 9.85059C6.3701 9.47059 6.28565 9.09059 6.11676 8.71059L11.2468 5.54392C11.5423 5.8817 11.8907 6.13503 12.2918 6.30392C12.6929 6.47281 13.1045 6.55725 13.5268 6.55725C14.4134 6.55725 15.1523 6.25114 15.7434 5.63892C16.3345 5.0267 16.6301 4.29836 16.6301 3.45392C16.6301 2.60947 16.3345 1.88114 15.7434 1.26892C15.1523 0.656696 14.424 0.350586 13.5584 0.350586C12.6929 0.350586 11.954 0.656696 11.3418 1.26892C10.7295 1.88114 10.4234 2.60947 10.4234 3.45392C10.4234 3.83392 10.5079 4.21392 10.6768 4.59392L5.54676 7.76059C5.25121 7.42281 4.90288 7.16947 4.50176 7.00059C4.10065 6.8317 3.66788 6.74725 3.20343 6.74725C2.35899 6.74725 1.63065 7.05336 1.01843 7.66559C0.406209 8.27781 0.100098 9.00614 0.100098 9.85059C0.100098 10.695 0.406209 11.4234 1.01843 12.0356C1.63065 12.6478 2.35899 12.9539 3.20343 12.9539C3.66788 12.9539 4.10065 12.8695 4.50176 12.7006C4.90288 12.5317 5.25121 12.2784 5.54676 11.9406L10.6768 15.1073C10.5079 15.4873 10.4234 15.8673 10.4234 16.2473C10.4234 17.0917 10.7295 17.82 11.3418 18.4323C11.954 19.0445 12.6929 19.3506 13.5584 19.3506C14.424 19.3506 15.1523 19.0445 15.7434 18.4323C16.3345 17.82 16.6301 17.0917 16.6301 16.2473C16.6301 15.4028 16.3345 14.6745 15.7434 14.0623C15.1523 13.45 14.4134 13.1439 13.5268 13.1439ZM11.5634 3.45392C11.5634 2.90503 11.7534 2.44059 12.1334 2.06059C12.5134 1.68059 12.9779 1.49059 13.5268 1.49059C14.0757 1.49059 14.5507 1.68059 14.9518 2.06059C15.3529 2.44059 15.5534 2.90503 15.5534 3.45392C15.5534 4.00281 15.3529 4.46725 14.9518 4.84725C14.5507 5.22725 14.0757 5.41725 13.5268 5.41725C12.9779 5.41725 12.5134 5.22725 12.1334 4.84725C11.7534 4.46725 11.5634 4.00281 11.5634 3.45392ZM3.20343 11.8139C2.69676 11.8139 2.24288 11.6239 1.84176 11.2439C1.44065 10.8639 1.2401 10.3995 1.2401 9.85059C1.2401 9.3017 1.44065 8.83725 1.84176 8.45725C2.24288 8.07725 2.70732 7.88725 3.2351 7.88725C3.76288 7.88725 4.22732 8.07725 4.62843 8.45725C5.02954 8.83725 5.2301 9.3017 5.2301 9.85059C5.2301 10.3995 5.02954 10.8639 4.62843 11.2439C4.22732 11.6239 3.75232 11.8139 3.20343 11.8139ZM11.5634 16.2473C11.5634 15.6984 11.7534 15.2339 12.1334 14.8539C12.5134 14.4739 12.9779 14.2839 13.5268 14.2839C14.0757 14.2839 14.5507 14.4739 14.9518 14.8539C15.3529 15.2339 15.5534 15.6984 15.5534 16.2473C15.5534 16.7961 15.3529 17.2606 14.9518 17.6406C14.5507 18.0206 14.0757 18.2106 13.5268 18.2106C12.9779 18.2106 12.5134 18.0206 12.1334 17.6406C11.7534 17.2606 11.5634 16.7961 11.5634 16.2473Z" fill="#1363DF"/>
</svg>
