<svg width="16" height="14" viewBox="0 0 16 14" fill="none" xmlns="http://www.w3.org/2000/svg">
<path d="M14.4272 4.00684C14.4272 4.15332 14.4272 4.27051 14.4272 4.41699C14.4272 8.48926 11.3511 13.1475 5.69678 13.1475C3.93896 13.1475 2.32764 12.6494 0.97998 11.7705C1.21436 11.7998 1.44873 11.8291 1.7124 11.8291C3.14795 11.8291 4.46631 11.3311 5.521 10.5107C4.17334 10.4814 3.03076 9.60254 2.6499 8.37207C2.85498 8.40137 3.03076 8.43066 3.23584 8.43066C3.49951 8.43066 3.79248 8.37207 4.02686 8.31348C2.62061 8.02051 1.56592 6.79004 1.56592 5.2959V5.2666C1.97607 5.50098 2.47412 5.61816 2.97217 5.64746C2.12256 5.09082 1.59521 4.15332 1.59521 3.09863C1.59521 2.5127 1.7417 1.98535 2.00537 1.5459C3.52881 3.3916 5.81396 4.62207 8.36279 4.76855C8.3042 4.53418 8.2749 4.2998 8.2749 4.06543C8.2749 2.36621 9.65186 0.989258 11.3511 0.989258C12.23 0.989258 13.021 1.34082 13.6069 1.95605C14.2808 1.80957 14.9546 1.5459 15.5405 1.19434C15.3062 1.92676 14.8374 2.5127 14.1929 2.89355C14.8081 2.83496 15.4233 2.65918 15.9507 2.4248C15.5405 3.04004 15.0132 3.56738 14.4272 4.00684Z" fill="#E7EFFC"/>
</svg>
