<svg width="15" height="14" viewBox="0 0 15 14" fill="none" xmlns="http://www.w3.org/2000/svg">
<path d="M12.1128 2.4248C13.3433 3.65527 14.105 5.2666 14.105 7.02441C14.105 10.5986 11.1167 13.5283 7.51318 13.5283C6.4292 13.5283 5.37451 13.2354 4.40771 12.7373L0.97998 13.6162L1.88818 10.2471C1.33154 9.28027 1.00928 8.16699 1.00928 6.99512C1.00928 3.4209 3.93896 0.491211 7.51318 0.491211C9.271 0.491211 10.9116 1.19434 12.1128 2.4248ZM7.51318 12.415C10.5015 12.415 12.9917 9.9834 12.9917 7.02441C12.9917 5.55957 12.3765 4.21191 11.3511 3.18652C10.3257 2.16113 8.97803 1.60449 7.54248 1.60449C4.5542 1.60449 2.12256 4.03613 2.12256 6.99512C2.12256 8.02051 2.41553 9.0166 2.94287 9.89551L3.08936 10.1006L2.53271 12.0928L4.5835 11.5361L4.75928 11.6533C5.60889 12.1514 6.54639 12.415 7.51318 12.415ZM10.5015 8.37207C10.6479 8.45996 10.7651 8.48926 10.7944 8.57715C10.853 8.63574 10.853 8.95801 10.7065 9.33887C10.5601 9.71973 9.91553 10.0713 9.62256 10.1006C9.09521 10.1885 8.68506 10.1592 7.65967 9.69043C6.01904 8.9873 4.96436 7.34668 4.87646 7.25879C4.78857 7.1416 4.23193 6.37988 4.23193 5.55957C4.23193 4.76855 4.64209 4.3877 4.78857 4.21191C4.93506 4.03613 5.11084 4.00684 5.22803 4.00684C5.31592 4.00684 5.43311 4.00684 5.521 4.00684C5.63818 4.00684 5.75537 3.97754 5.90186 4.2998C6.01904 4.62207 6.37061 5.41309 6.3999 5.50098C6.4292 5.58887 6.4585 5.67676 6.3999 5.79395C6.10693 6.40918 5.75537 6.37988 5.93115 6.67285C6.57568 7.75684 7.19092 8.1377 8.15771 8.60645C8.3042 8.69434 8.39209 8.66504 8.50928 8.57715C8.59717 8.45996 8.91943 8.0791 9.00732 7.93262C9.12451 7.75684 9.2417 7.78613 9.38818 7.84473C9.53467 7.90332 10.3257 8.28418 10.5015 8.37207Z" fill="#E7EFFC"/>
</svg>
