<svg width="17" height="12" viewBox="0 0 17 12" fill="none" xmlns="http://www.w3.org/2000/svg">
<path d="M16.314 2.21582C16.6655 3.44629 16.6655 6.08301 16.6655 6.08301C16.6655 6.08301 16.6655 8.69043 16.314 9.9502C16.1382 10.6533 15.5815 11.1807 14.9077 11.3564C13.6479 11.6787 8.66748 11.6787 8.66748 11.6787C8.66748 11.6787 3.65771 11.6787 2.39795 11.3564C1.72412 11.1807 1.16748 10.6533 0.991699 9.9502C0.640137 8.69043 0.640137 6.08301 0.640137 6.08301C0.640137 6.08301 0.640137 3.44629 0.991699 2.21582C1.16748 1.5127 1.72412 0.956055 2.39795 0.780273C3.65771 0.428711 8.66748 0.428711 8.66748 0.428711C8.66748 0.428711 13.6479 0.428711 14.9077 0.780273C15.5815 0.956055 16.1382 1.5127 16.314 2.21582ZM7.02686 8.45605L11.187 6.08301L7.02686 3.70996V8.45605Z" fill="#E7EFFC"/>
</svg>
